<svg viewBox="0 0 330 200" xmlns="http://www.w3.org/2000/svg"><g><g><g><g><g><line x1="51.5625" y1="177" x2="46.5625" y2="177" style="visibility: inherit;" fill="rgb(0, 0, 0)" stroke="rgb(204, 204, 204)" stroke-width="1px"></line><line x1="51.5625" y1="159.3" x2="46.5625" y2="159.3" style="visibility: inherit;" fill="rgb(0, 0, 0)" stroke="rgb(204, 204, 204)" stroke-width="1px"></line><line x1="51.5625" y1="141.6" x2="46.5625" y2="141.6" style="visibility: inherit;" fill="rgb(0, 0, 0)" stroke="rgb(204, 204, 204)" stroke-width="1px"></line><line x1="51.5625" y1="123.89999999999999" x2="46.5625" y2="123.89999999999999" style="visibility: inherit;" fill="rgb(0, 0, 0)" stroke="rgb(204, 204, 204)" stroke-width="1px"></line><line x1="51.5625" y1="106.2" x2="46.5625" y2="106.2" style="visibility: inherit;" fill="rgb(0, 0, 0)" stroke="rgb(204, 204, 204)" stroke-width="1px"></line><line x1="51.5625" y1="88.5" x2="46.5625" y2="88.5" style="visibility: inherit;" fill="rgb(0, 0, 0)" stroke="rgb(204, 204, 204)" stroke-width="1px"></line><line x1="51.5625" y1="70.8" x2="46.5625" y2="70.8" style="visibility: inherit;" fill="rgb(0, 0, 0)" stroke="rgb(204, 204, 204)" stroke-width="1px"></line><line x1="51.5625" y1="53.10000000000001" x2="46.5625" y2="53.10000000000001" style="visibility: inherit;" fill="rgb(0, 0, 0)" stroke="rgb(204, 204, 204)" stroke-width="1px"></line><line x1="51.5625" y1="35.39999999999999" x2="46.5625" y2="35.39999999999999" style="visibility: inherit;" fill="rgb(0, 0, 0)" stroke="rgb(204, 204, 204)" stroke-width="1px"></line><line x1="51.5625" y1="17.699999999999996" x2="46.5625" y2="17.699999999999996" style="visibility: inherit;" fill="rgb(0, 0, 0)" stroke="rgb(204, 204, 204)" stroke-width="1px"></line><line x1="51.5625" y1="0" x2="46.5625" y2="0" style="visibility: inherit;" fill="rgb(0, 0, 0)" stroke="rgb(204, 204, 204)" stroke-width="1px"></line></g><g transform="translate(41.5625, 0)"><text x="0" y="177" dx="0em" dy="0.3em" style="text-anchor: end; visibility: hidden; font-family: Roboto, sans-serif; font-size: 12px; font-weight: 200;" fill="rgb(33, 33, 33)" stroke="none" stroke-width="1px">-1</text><text x="0" y="159.3" dx="0em" dy="0.3em" style="text-anchor: end; visibility: inherit; font-family: Roboto, sans-serif; font-size: 12px; font-weight: 200;" fill="rgb(33, 33, 33)" stroke="none" stroke-width="1px">-0.8</text><text x="0" y="141.6" dx="0em" dy="0.3em" style="text-anchor: end; visibility: hidden; font-family: Roboto, sans-serif; font-size: 12px; font-weight: 200;" fill="rgb(33, 33, 33)" stroke="none" stroke-width="1px">-0.6</text><text x="0" y="123.89999999999999" dx="0em" dy="0.3em" style="text-anchor: end; visibility: inherit; font-family: Roboto, sans-serif; font-size: 12px; font-weight: 200;" fill="rgb(33, 33, 33)" stroke="none" stroke-width="1px">-0.4</text><text x="0" y="106.2" dx="0em" dy="0.3em" style="text-anchor: end; visibility: hidden; font-family: Roboto, sans-serif; font-size: 12px; font-weight: 200;" fill="rgb(33, 33, 33)" stroke="none" stroke-width="1px">-0.2</text><text x="0" y="88.5" dx="0em" dy="0.3em" style="text-anchor: end; visibility: inherit; font-family: Roboto, sans-serif; font-size: 12px; font-weight: 200;" fill="rgb(33, 33, 33)" stroke="none" stroke-width="1px">0</text><text x="0" y="70.8" dx="0em" dy="0.3em" style="text-anchor: end; visibility: hidden; font-family: Roboto, sans-serif; font-size: 12px; font-weight: 200;" fill="rgb(33, 33, 33)" stroke="none" stroke-width="1px">0.2</text><text x="0" y="53.10000000000001" dx="0em" dy="0.3em" style="text-anchor: end; visibility: inherit; font-family: Roboto, sans-serif; font-size: 12px; font-weight: 200;" fill="rgb(33, 33, 33)" stroke="none" stroke-width="1px">0.4</text><text x="0" y="35.39999999999999" dx="0em" dy="0.3em" style="text-anchor: end; visibility: hidden; font-family: Roboto, sans-serif; font-size: 12px; font-weight: 200;" fill="rgb(33, 33, 33)" stroke="none" stroke-width="1px">0.6</text><text x="0" y="17.699999999999996" dx="0em" dy="0.3em" style="text-anchor: end; visibility: inherit; font-family: Roboto, sans-serif; font-size: 12px; font-weight: 200;" fill="rgb(33, 33, 33)" stroke="none" stroke-width="1px">0.8</text><text x="0" y="0" dx="0em" dy="0.3em" style="text-anchor: end; visibility: hidden; font-family: Roboto, sans-serif; font-size: 12px; font-weight: 200;" fill="rgb(33, 33, 33)" stroke="none" stroke-width="1px">1</text></g><line x1="51.5625" y1="0" x2="51.5625" y2="177" fill="rgb(0, 0, 0)" stroke="rgb(204, 204, 204)" stroke-width="1px"></line></g></g><g transform="translate(51, 0)" clip-path="url(#clip_0)"><clipPath id="clip_0"><rect width="278" height="177"></rect></clipPath><g><g><g><line x1="0" y1="0" x2="0" y2="177" fill="rgb(0, 0, 0)" stroke="rgb(66, 66, 66)" stroke-width="1px" opacity="0.25"></line><line x1="23.203125" y1="0" x2="23.203125" y2="177" fill="rgb(0, 0, 0)" stroke="rgb(66, 66, 66)" stroke-width="1px" opacity="0.25"></line><line x1="46.40625" y1="0" x2="46.40625" y2="177" fill="rgb(0, 0, 0)" stroke="rgb(66, 66, 66)" stroke-width="1px" opacity="0.25"></line><line x1="69.609375" y1="0" x2="69.609375" y2="177" fill="rgb(0, 0, 0)" stroke="rgb(66, 66, 66)" stroke-width="1px" opacity="0.25"></line><line x1="92.8125" y1="0" x2="92.8125" y2="177" fill="rgb(0, 0, 0)" stroke="rgb(66, 66, 66)" stroke-width="1px" opacity="0.25"></line><line x1="116.015625" y1="0" x2="116.015625" y2="177" fill="rgb(0, 0, 0)" stroke="rgb(66, 66, 66)" stroke-width="1px" opacity="0.25"></line><line x1="139.21875" y1="0" x2="139.21875" y2="177" fill="rgb(0, 0, 0)" stroke="rgb(66, 66, 66)" stroke-width="1px" opacity="0.25"></line><line x1="162.421875" y1="0" x2="162.421875" y2="177" fill="rgb(0, 0, 0)" stroke="rgb(66, 66, 66)" stroke-width="1px" opacity="0.25"></line><line x1="185.625" y1="0" x2="185.625" y2="177" fill="rgb(0, 0, 0)" stroke="rgb(66, 66, 66)" stroke-width="1px" opacity="0.25"></line><line x1="208.828125" y1="0" x2="208.828125" y2="177" fill="rgb(0, 0, 0)" stroke="rgb(66, 66, 66)" stroke-width="1px" opacity="0.25"></line><line x1="232.03125" y1="0" x2="232.03125" y2="177" fill="rgb(0, 0, 0)" stroke="rgb(66, 66, 66)" stroke-width="1px" opacity="0.25"></line><line x1="255.234375" y1="0" x2="255.234375" y2="177" fill="rgb(0, 0, 0)" stroke="rgb(66, 66, 66)" stroke-width="1px" opacity="0.25"></line><line x1="278.4375" y1="0" x2="278.4375" y2="177" fill="rgb(0, 0, 0)" stroke="rgb(66, 66, 66)" stroke-width="1px" opacity="0.25"></line></g><g><line x1="0" y1="177" x2="278.4375" y2="177" fill="rgb(0, 0, 0)" stroke="rgb(66, 66, 66)" stroke-width="1px" opacity="0.25"></line><line x1="0" y1="159.3" x2="278.4375" y2="159.3" fill="rgb(0, 0, 0)" stroke="rgb(66, 66, 66)" stroke-width="1px" opacity="0.25"></line><line x1="0" y1="141.6" x2="278.4375" y2="141.6" fill="rgb(0, 0, 0)" stroke="rgb(66, 66, 66)" stroke-width="1px" opacity="0.25"></line><line x1="0" y1="123.89999999999999" x2="278.4375" y2="123.89999999999999" fill="rgb(0, 0, 0)" stroke="rgb(66, 66, 66)" stroke-width="1px" opacity="0.25"></line><line x1="0" y1="106.2" x2="278.4375" y2="106.2" fill="rgb(0, 0, 0)" stroke="rgb(66, 66, 66)" stroke-width="1px" opacity="0.25"></line><line x1="0" y1="88.5" x2="278.4375" y2="88.5" fill="rgb(0, 0, 0)" stroke="rgb(66, 66, 66)" stroke-width="1px" opacity="0.25"></line><line x1="0" y1="70.8" x2="278.4375" y2="70.8" fill="rgb(0, 0, 0)" stroke="rgb(66, 66, 66)" stroke-width="1px" opacity="0.25"></line><line x1="0" y1="53.10000000000001" x2="278.4375" y2="53.10000000000001" fill="rgb(0, 0, 0)" stroke="rgb(66, 66, 66)" stroke-width="1px" opacity="0.25"></line><line x1="0" y1="35.39999999999999" x2="278.4375" y2="35.39999999999999" fill="rgb(0, 0, 0)" stroke="rgb(66, 66, 66)" stroke-width="1px" opacity="0.25"></line><line x1="0" y1="17.699999999999996" x2="278.4375" y2="17.699999999999996" fill="rgb(0, 0, 0)" stroke="rgb(66, 66, 66)" stroke-width="1px" opacity="0.25"></line><line x1="0" y1="0" x2="278.4375" y2="0" fill="rgb(0, 0, 0)" stroke="rgb(66, 66, 66)" stroke-width="1px" opacity="0.25"></line></g></g></g><g><g><line x1="0" y1="88.5" x2="278.4375" y2="88.5" fill="rgb(0, 0, 0)" stroke="rgb(153, 153, 153)" stroke-width="1.5px"></line></g></g><g><g><line x1="23.203125" y1="0" x2="23.203125" y2="177" fill="rgb(0, 0, 0)" stroke="rgb(153, 153, 153)" stroke-width="1.5px"></line></g></g><g><g><g><g><g><path stroke="rgb(255, 112, 67)" stroke-width="2px" d="M23.203125,88.5L23.6671875,88.5L24.13125,88.5L24.5953125,88.5L25.059375,88.5L25.523437499999996,88.5L25.9875,88.5L26.4515625,88.5L26.915625,88.5L27.3796875,88.5L27.84375,88.5L28.3078125,88.5L28.771875,88.5L29.2359375,88.5L29.700000000000003,88.5L30.1640625,88.5L30.628125,88.5L31.092187499999998,88.5L31.55625,88.5L32.0203125,88.5L32.484375,88.5L32.9484375,88.5L33.4125,88.5L33.8765625,88.5L34.340625,88.5L34.8046875,88.5L35.268750000000004,88.5L35.7328125,88.5L36.196875,88.5L36.660937499999996,88.5L37.125,88.5L37.589062500000004,88.5L38.053124999999994,88.5L38.5171875,88.5L38.98125,88.5L39.4453125,88.5L39.909375000000004,88.5L40.373437499999994,88.5L40.8375,88.5L41.3015625,88.5L41.765625,88.5L42.229687500000004,88.5L42.693749999999994,88.5L43.1578125,88.5L43.621875,88.5L44.0859375,88.5L44.550000000000004,88.5L45.014062499999994,88.5L45.478125,88.5L45.9421875,88.5L46.40625,88.5L46.8703125,88.5L47.334375,88.5L47.7984375,88.5L48.2625,88.5L48.7265625,88.5L49.190625,88.5L49.6546875,88.5L50.11875,88.5L50.5828125,88.5L51.04687499999999,88.5L51.5109375,88.5L51.975,88.5L52.4390625,88.5L52.903125,88.5L53.36718750000001,88.5L53.83125,88.5L54.2953125,88.5L54.759375,88.5L55.2234375,88.5L55.6875,88.5L56.1515625,88.5L56.615625,88.5L57.0796875,88.5L57.54375,88.5L58.0078125,88.5L58.471875,88.5L58.9359375,88.5L59.400000000000006,88.5L59.864062499999996,88.5L60.328125,88.5L60.7921875,88.5L61.25625,88.5L61.720312500000006,88.5L62.184374999999996,88.5L62.6484375,88.5L63.1125,88.5L63.5765625,88.5L64.040625,88.5L64.5046875,88.5L64.96875,88.5L65.4328125,88.5L65.896875,88.5L66.3609375,88.5L66.825,88.5L67.2890625,88.5L67.753125,88.5L68.2171875,88.5L68.68125,88.5L69.1453125,88.5L69.609375,88.5L70.0734375,88.5L70.53750000000001,88.5L71.0015625,88.5L71.465625,88.5L71.92968750000001,88.5L72.39375,88.5L72.8578125,88.5L73.32187499999999,88.5L73.7859375,88.5L74.25,88.5L74.7140625,88.5L75.17812500000001,88.5L75.6421875,88.5L76.10624999999999,88.5L76.5703125,88.5L77.034375,88.5L77.4984375,88.5L77.9625,88.5L78.4265625,88.5L78.890625,88.5L79.3546875,88.5L79.81875000000001,88.5L80.2828125,88.5L80.74687499999999,88.5L81.2109375,88.5L81.675,88.5L82.1390625,88.5L82.603125,88.5L83.0671875,88.5L83.53125,88.5L83.99531250000001,88.5L84.45937500000001,88.5L84.92343749999999,88.5L85.38749999999999,88.5L85.8515625,88.5L86.315625,88.5L86.7796875,88.5L87.24375,88.5L87.7078125,88.5L88.171875,88.5L88.63593750000001,88.5L89.10000000000001,88.5L89.56406249999999,88.5L90.02812499999999,88.5L90.4921875,88.5L90.95625,88.5L91.4203125,88.5L91.884375,88.5L92.3484375,88.5L92.8125,88.5L93.27656250000001,88.5L93.740625,88.5L94.20468749999999,88.5L94.66875,88.5L95.1328125,88.5L95.596875,88.5L96.0609375,88.5L96.525,88.5L96.9890625,88.5L97.453125,88.5L97.91718750000001,88.5L98.38125,88.5L98.84531249999999,88.5L99.309375,88.5L99.7734375,88.5L100.2375,88.5L100.70156250000001,88.5L101.165625,88.5L101.6296875,88.5L102.09374999999999,88.5L102.5578125,88.5L103.021875,88.5L103.48593749999999,88.5L103.95,88.5L104.4140625,88.5L104.878125,88.5L105.34218750000001,88.5L105.80625,88.5L106.2703125,88.5L106.73437500000001,88.5L107.1984375,88.5L107.6625,88.5L108.12656249999999,88.5L108.590625,88.5L109.0546875,88.5L109.51875,88.5L109.98281250000001,88.5L110.446875,88.5L110.91093749999999,88.5L111.375,88.5L111.8390625,88.5L112.303125,88.5L112.7671875,88.5L113.23125,88.5L113.6953125,88.5L114.159375,88.5L114.62343750000001,88.5L115.0875,88.5L115.55156249999999,88.5L116.015625,88.5L116.4796875,88.5L116.94375,88.5L117.4078125,88.5L117.871875,88.5L118.3359375,88.5L118.80000000000001,88.5L119.26406250000001,88.5L119.72812499999999,88.5L120.19218749999999,88.5L120.65625,88.5L121.1203125,88.5L121.584375,88.5L122.0484375,88.5L122.5125,88.5L122.9765625,88.5L123.44062500000001,88.5L123.90468750000001,88.5L124.36874999999999,88.5L124.83281249999999,88.5L125.296875,88.5L125.7609375,88.5L126.225,88.5L126.6890625,88.5L127.153125,88.5L127.6171875,88.5L128.08125,88.5L128.5453125,88.5L129.009375,88.5L129.47343750000002,88.5L129.9375,88.5L130.4015625,88.5L130.865625,88.5L131.3296875,88.5L131.79375,88.5L132.2578125,88.5L132.721875,88.5L133.1859375,88.5L133.65,88.5L134.11406250000002,88.5L134.578125,88.5L135.04218749999998,88.5L135.50625,88.5L135.9703125,88.5L136.434375,88.5L136.8984375,88.5L137.3625,88.5L137.8265625,88.5L138.290625,88.5L138.75468750000002,88.5L139.21875,88.5L139.6828125,88.5L140.146875,88.5L140.6109375,88.5L141.07500000000002,88.5L141.5390625,88.5L142.003125,88.5L142.46718750000002,88.5L142.93125,88.5L143.39531250000002,88.5L143.85937500000003,88.5L144.32343749999998,88.5L144.7875,88.5L145.25156249999998,88.5L145.715625,88.5L146.1796875,88.5L146.64374999999998,88.5L147.1078125,88.5L147.571875,88.5L148.0359375,88.5L148.5,88.5L148.9640625,88.5L149.428125,88.5L149.8921875,88.5L150.35625000000002,88.5L150.8203125,88.5L151.284375,88.5L151.74843750000002,88.5L152.21249999999998,88.5L152.6765625,88.5L153.140625,88.5L153.60468749999998,88.5L154.06875,88.5L154.5328125,88.5L154.996875,88.5L155.4609375,88.5L155.925,88.5L156.3890625,88.5L156.853125,88.5L157.3171875,88.5L157.78125,88.5L158.2453125,88.5L158.709375,88.5L159.1734375,88.5L159.63750000000002,88.5L160.1015625,88.5L160.565625,88.5L161.02968750000002,88.5L161.49374999999998,88.5L161.9578125,88.5L162.421875,88.5L162.88593749999998,88.5L163.35,88.5L163.8140625,88.5L164.278125,88.5L164.7421875,88.5L165.20625,88.5L165.6703125,88.5L166.134375,88.5L166.59843750000002,88.5L167.0625,88.5L167.5265625,88.5L167.99062500000002,88.5L168.4546875,88.5L168.91875000000002,88.5L169.38281249999997,88.5L169.84687499999998,88.5L170.3109375,88.5L170.77499999999998,88.5L171.2390625,88.5L171.703125,88.5L172.16718749999998,88.5L172.63125,88.5L173.0953125,88.5L173.559375,88.5L174.0234375,88.5L174.4875,88.5L174.9515625,88.5L175.415625,88.5L175.87968750000002,88.5L176.34375,88.5L176.8078125,88.5L177.27187500000002,88.5L177.7359375,88.5L178.20000000000002,88.5L178.66406250000003,88.5L179.12812499999998,88.5L179.5921875,88.5L180.05624999999998,88.5L180.5203125,88.5L180.984375,88.5L181.44843749999998,88.5L181.9125,88.5L182.3765625,88.5L182.840625,88.5L183.3046875,88.5L183.76875,88.5L184.2328125,88.5L184.696875,88.5L185.16093750000002,88.5L185.625,88.5L186.0890625,88.5L186.55312500000002,88.5L187.01718749999998,88.5L187.48125,88.5L187.9453125,88.5L188.40937499999998,88.5L188.8734375,88.5L189.3375,88.5L189.8015625,88.5L190.265625,88.5L190.7296875,88.5L191.19375,88.5L191.6578125,88.5L192.121875,88.5L192.5859375,88.5L193.05,88.5L193.5140625,88.5L193.978125,88.5L194.44218750000002,88.5L194.90625,88.5L195.3703125,88.5L195.83437500000002,88.5L196.29843749999998,88.5L196.7625,88.5L197.2265625,88.5L197.69062499999998,88.5L198.1546875,88.5L198.61875,88.5L199.0828125,88.5L199.546875,88.5L200.0109375,88.5L200.475,88.5L200.9390625,88.5L201.40312500000002,88.5L201.8671875,88.5L202.33125,88.5L202.79531250000002,88.5L203.259375,88.5L203.72343750000002,88.5L204.18749999999997,88.5L204.65156249999998,88.5L205.115625,88.5L205.57968749999998,88.5L206.04375,88.5L206.5078125,88.5L206.97187499999998,88.5L207.4359375,88.5L207.9,88.5L208.3640625,88.5L208.828125,88.5L209.2921875,88.5L209.75625,88.5L210.2203125,88.5L210.68437500000002,88.5L211.1484375,88.5L211.6125,88.5L212.07656250000002,88.5L212.540625,88.5L213.00468750000002,88.5L213.46875000000003,88.5L213.93281249999998,88.5L214.396875,88.5L214.86093749999998,88.5L215.325,88.5L215.7890625,88.5L216.25312499999998,88.5L216.7171875,88.5L217.18125,88.5L217.6453125,88.5L218.109375,88.5L218.5734375,88.5L219.0375,88.5L219.5015625,88.5L219.96562500000002,88.5L220.4296875,88.5L220.89375,88.5L221.35781250000002,88.5L221.82187499999998,88.5L222.2859375,88.5L222.75,88.5L223.21406249999998,88.5L223.678125,88.5L224.1421875,88.5L224.60625,88.5L225.0703125,88.5L225.534375,88.5L225.9984375,88.5L226.4625,88.5L226.9265625,88.5L227.390625,88.5L227.8546875,88.5L228.31875,88.5L228.7828125,88.5L229.24687500000002,88.5L229.7109375,88.5L230.175,88.5L230.63906250000002,88.5L231.10312499999998,88.5L231.5671875,88.5L232.03125,88.5L232.49531249999998,88.5L232.959375,88.5L233.4234375,88.5L233.8875,88.5L234.3515625,88.5L234.815625,88.5L235.2796875,88.5L235.74375,88.5L236.20781250000002,88.5L236.671875,88.5L237.1359375,88.5L237.60000000000002,88.5L238.0640625,88.5L238.52812500000002,88.5L238.99218749999997,88.5L239.45624999999998,88.5L239.9203125,88.5L240.38437499999998,88.5L240.8484375,88.5L241.3125,88.5L241.77656249999998,88.5L242.240625,88.5L242.7046875,88.5L243.16875,88.5L243.6328125,88.5L244.096875,88.5L244.5609375,88.5L245.025,88.5L245.48906250000002,88.5L245.953125,88.5L246.4171875,88.5L246.88125000000002,88.5L247.3453125,88.5L247.80937500000002,88.5L248.27343750000003,88.5L248.73749999999998,88.5L249.2015625,88.5L249.66562499999998,88.5L250.1296875,88.5L250.59375,88.5L251.05781249999998,88.5L251.521875,88.5L251.9859375,88.5L252.45,88.5L252.9140625,88.5L253.378125,88.5L253.8421875,88.5L254.30625,88.5L254.77031250000002,88.5" style="fill: none;" fill="none"></path></g></g></g></g><g opacity="0.2"><g><g><g><path stroke="rgb(255, 112, 67)" stroke-width="2px" d="M23.203125,88.5L23.6671875,88.5L24.13125,88.5L24.5953125,88.5L25.059375,88.5L25.523437499999996,88.5L25.9875,88.5L26.4515625,88.5L26.915625,88.5L27.3796875,88.5L27.84375,88.5L28.3078125,88.5L28.771875,88.5L29.2359375,88.5L29.700000000000003,88.5L30.1640625,88.5L30.628125,88.5L31.092187499999998,88.5L31.55625,88.5L32.0203125,88.5L32.484375,88.5L32.9484375,88.5L33.4125,88.5L33.8765625,88.5L34.340625,88.5L34.8046875,88.5L35.268750000000004,88.5L35.7328125,88.5L36.196875,88.5L36.660937499999996,88.5L37.125,88.5L37.589062500000004,88.5L38.053124999999994,88.5L38.5171875,88.5L38.98125,88.5L39.4453125,88.5L39.909375000000004,88.5L40.373437499999994,88.5L40.8375,88.5L41.3015625,88.5L41.765625,88.5L42.229687500000004,88.5L42.693749999999994,88.5L43.1578125,88.5L43.621875,88.5L44.0859375,88.5L44.550000000000004,88.5L45.014062499999994,88.5L45.478125,88.5L45.9421875,88.5L46.40625,88.5L46.8703125,88.5L47.334375,88.5L47.7984375,88.5L48.2625,88.5L48.7265625,88.5L49.190625,88.5L49.6546875,88.5L50.11875,88.5L50.5828125,88.5L51.04687499999999,88.5L51.5109375,88.5L51.975,88.5L52.4390625,88.5L52.903125,88.5L53.36718750000001,88.5L53.83125,88.5L54.2953125,88.5L54.759375,88.5L55.2234375,88.5L55.6875,88.5L56.1515625,88.5L56.615625,88.5L57.0796875,88.5L57.54375,88.5L58.0078125,88.5L58.471875,88.5L58.9359375,88.5L59.400000000000006,88.5L59.864062499999996,88.5L60.328125,88.5L60.7921875,88.5L61.25625,88.5L61.720312500000006,88.5L62.184374999999996,88.5L62.6484375,88.5L63.1125,88.5L63.5765625,88.5L64.040625,88.5L64.5046875,88.5L64.96875,88.5L65.4328125,88.5L65.896875,88.5L66.3609375,88.5L66.825,88.5L67.2890625,88.5L67.753125,88.5L68.2171875,88.5L68.68125,88.5L69.1453125,88.5L69.609375,88.5L70.0734375,88.5L70.53750000000001,88.5L71.0015625,88.5L71.465625,88.5L71.92968750000001,88.5L72.39375,88.5L72.8578125,88.5L73.32187499999999,88.5L73.7859375,88.5L74.25,88.5L74.7140625,88.5L75.17812500000001,88.5L75.6421875,88.5L76.10624999999999,88.5L76.5703125,88.5L77.034375,88.5L77.4984375,88.5L77.9625,88.5L78.4265625,88.5L78.890625,88.5L79.3546875,88.5L79.81875000000001,88.5L80.2828125,88.5L80.74687499999999,88.5L81.2109375,88.5L81.675,88.5L82.1390625,88.5L82.603125,88.5L83.0671875,88.5L83.53125,88.5L83.99531250000001,88.5L84.45937500000001,88.5L84.92343749999999,88.5L85.38749999999999,88.5L85.8515625,88.5L86.315625,88.5L86.7796875,88.5L87.24375,88.5L87.7078125,88.5L88.171875,88.5L88.63593750000001,88.5L89.10000000000001,88.5L89.56406249999999,88.5L90.02812499999999,88.5L90.4921875,88.5L90.95625,88.5L91.4203125,88.5L91.884375,88.5L92.3484375,88.5L92.8125,88.5L93.27656250000001,88.5L93.740625,88.5L94.20468749999999,88.5L94.66875,88.5L95.1328125,88.5L95.596875,88.5L96.0609375,88.5L96.525,88.5L96.9890625,88.5L97.453125,88.5L97.91718750000001,88.5L98.38125,88.5L98.84531249999999,88.5L99.309375,88.5L99.7734375,88.5L100.2375,88.5L100.70156250000001,88.5L101.165625,88.5L101.6296875,88.5L102.09374999999999,88.5L102.5578125,88.5L103.021875,88.5L103.48593749999999,88.5L103.95,88.5L104.4140625,88.5L104.878125,88.5L105.34218750000001,88.5L105.80625,88.5L106.2703125,88.5L106.73437500000001,88.5L107.1984375,88.5L107.6625,88.5L108.12656249999999,88.5L108.590625,88.5L109.0546875,88.5L109.51875,88.5L109.98281250000001,88.5L110.446875,88.5L110.91093749999999,88.5L111.375,88.5L111.8390625,88.5L112.303125,88.5L112.7671875,88.5L113.23125,88.5L113.6953125,88.5L114.159375,88.5L114.62343750000001,88.5L115.0875,88.5L115.55156249999999,88.5L116.015625,88.5L116.4796875,88.5L116.94375,88.5L117.4078125,88.5L117.871875,88.5L118.3359375,88.5L118.80000000000001,88.5L119.26406250000001,88.5L119.72812499999999,88.5L120.19218749999999,88.5L120.65625,88.5L121.1203125,88.5L121.584375,88.5L122.0484375,88.5L122.5125,88.5L122.9765625,88.5L123.44062500000001,88.5L123.90468750000001,88.5L124.36874999999999,88.5L124.83281249999999,88.5L125.296875,88.5L125.7609375,88.5L126.225,88.5L126.6890625,88.5L127.153125,88.5L127.6171875,88.5L128.08125,88.5L128.5453125,88.5L129.009375,88.5L129.47343750000002,88.5L129.9375,88.5L130.4015625,88.5L130.865625,88.5L131.3296875,88.5L131.79375,88.5L132.2578125,88.5L132.721875,88.5L133.1859375,88.5L133.65,88.5L134.11406250000002,88.5L134.578125,88.5L135.04218749999998,88.5L135.50625,88.5L135.9703125,88.5L136.434375,88.5L136.8984375,88.5L137.3625,88.5L137.8265625,88.5L138.290625,88.5L138.75468750000002,88.5L139.21875,88.5L139.6828125,88.5L140.146875,88.5L140.6109375,88.5L141.07500000000002,88.5L141.5390625,88.5L142.003125,88.5L142.46718750000002,88.5L142.93125,88.5L143.39531250000002,88.5L143.85937500000003,88.5L144.32343749999998,88.5L144.7875,88.5L145.25156249999998,88.5L145.715625,88.5L146.1796875,88.5L146.64374999999998,88.5L147.1078125,88.5L147.571875,88.5L148.0359375,88.5L148.5,88.5L148.9640625,88.5L149.428125,88.5L149.8921875,88.5L150.35625000000002,88.5L150.8203125,88.5L151.284375,88.5L151.74843750000002,88.5L152.21249999999998,88.5L152.6765625,88.5L153.140625,88.5L153.60468749999998,88.5L154.06875,88.5L154.5328125,88.5L154.996875,88.5L155.4609375,88.5L155.925,88.5L156.3890625,88.5L156.853125,88.5L157.3171875,88.5L157.78125,88.5L158.2453125,88.5L158.709375,88.5L159.1734375,88.5L159.63750000000002,88.5L160.1015625,88.5L160.565625,88.5L161.02968750000002,88.5L161.49374999999998,88.5L161.9578125,88.5L162.421875,88.5L162.88593749999998,88.5L163.35,88.5L163.8140625,88.5L164.278125,88.5L164.7421875,88.5L165.20625,88.5L165.6703125,88.5L166.134375,88.5L166.59843750000002,88.5L167.0625,88.5L167.5265625,88.5L167.99062500000002,88.5L168.4546875,88.5L168.91875000000002,88.5L169.38281249999997,88.5L169.84687499999998,88.5L170.3109375,88.5L170.77499999999998,88.5L171.2390625,88.5L171.703125,88.5L172.16718749999998,88.5L172.63125,88.5L173.0953125,88.5L173.559375,88.5L174.0234375,88.5L174.4875,88.5L174.9515625,88.5L175.415625,88.5L175.87968750000002,88.5L176.34375,88.5L176.8078125,88.5L177.27187500000002,88.5L177.7359375,88.5L178.20000000000002,88.5L178.66406250000003,88.5L179.12812499999998,88.5L179.5921875,88.5L180.05624999999998,88.5L180.5203125,88.5L180.984375,88.5L181.44843749999998,88.5L181.9125,88.5L182.3765625,88.5L182.840625,88.5L183.3046875,88.5L183.76875,88.5L184.2328125,88.5L184.696875,88.5L185.16093750000002,88.5L185.625,88.5L186.0890625,88.5L186.55312500000002,88.5L187.01718749999998,88.5L187.48125,88.5L187.9453125,88.5L188.40937499999998,88.5L188.8734375,88.5L189.3375,88.5L189.8015625,88.5L190.265625,88.5L190.7296875,88.5L191.19375,88.5L191.6578125,88.5L192.121875,88.5L192.5859375,88.5L193.05,88.5L193.5140625,88.5L193.978125,88.5L194.44218750000002,88.5L194.90625,88.5L195.3703125,88.5L195.83437500000002,88.5L196.29843749999998,88.5L196.7625,88.5L197.2265625,88.5L197.69062499999998,88.5L198.1546875,88.5L198.61875,88.5L199.0828125,88.5L199.546875,88.5L200.0109375,88.5L200.475,88.5L200.9390625,88.5L201.40312500000002,88.5L201.8671875,88.5L202.33125,88.5L202.79531250000002,88.5L203.259375,88.5L203.72343750000002,88.5L204.18749999999997,88.5L204.65156249999998,88.5L205.115625,88.5L205.57968749999998,88.5L206.04375,88.5L206.5078125,88.5L206.97187499999998,88.5L207.4359375,88.5L207.9,88.5L208.3640625,88.5L208.828125,88.5L209.2921875,88.5L209.75625,88.5L210.2203125,88.5L210.68437500000002,88.5L211.1484375,88.5L211.6125,88.5L212.07656250000002,88.5L212.540625,88.5L213.00468750000002,88.5L213.46875000000003,88.5L213.93281249999998,88.5L214.396875,88.5L214.86093749999998,88.5L215.325,88.5L215.7890625,88.5L216.25312499999998,88.5L216.7171875,88.5L217.18125,88.5L217.6453125,88.5L218.109375,88.5L218.5734375,88.5L219.0375,88.5L219.5015625,88.5L219.96562500000002,88.5L220.4296875,88.5L220.89375,88.5L221.35781250000002,88.5L221.82187499999998,88.5L222.2859375,88.5L222.75,88.5L223.21406249999998,88.5L223.678125,88.5L224.1421875,88.5L224.60625,88.5L225.0703125,88.5L225.534375,88.5L225.9984375,88.5L226.4625,88.5L226.9265625,88.5L227.390625,88.5L227.8546875,88.5L228.31875,88.5L228.7828125,88.5L229.24687500000002,88.5L229.7109375,88.5L230.175,88.5L230.63906250000002,88.5L231.10312499999998,88.5L231.5671875,88.5L232.03125,88.5L232.49531249999998,88.5L232.959375,88.5L233.4234375,88.5L233.8875,88.5L234.3515625,88.5L234.815625,88.5L235.2796875,88.5L235.74375,88.5L236.20781250000002,88.5L236.671875,88.5L237.1359375,88.5L237.60000000000002,88.5L238.0640625,88.5L238.52812500000002,88.5L238.99218749999997,88.5L239.45624999999998,88.5L239.9203125,88.5L240.38437499999998,88.5L240.8484375,88.5L241.3125,88.5L241.77656249999998,88.5L242.240625,88.5L242.7046875,88.5L243.16875,88.5L243.6328125,88.5L244.096875,88.5L244.5609375,88.5L245.025,88.5L245.48906250000002,88.5L245.953125,88.5L246.4171875,88.5L246.88125000000002,88.5L247.3453125,88.5L247.80937500000002,88.5L248.27343750000003,88.5L248.73749999999998,88.5L249.2015625,88.5L249.66562499999998,88.5L250.1296875,88.5L250.59375,88.5L251.05781249999998,88.5L251.521875,88.5L251.9859375,88.5L252.45,88.5L252.9140625,88.5L253.378125,88.5L253.8421875,88.5L254.30625,88.5L254.77031250000002,88.5" style="fill: none;" fill="none"></path></g></g></g></g></g></g><g transform="translate(51, 177)" clip-path="url(#clip_1)"><clipPath id="clip_1"><rect width="278" height="23"></rect></clipPath><g><g><line x1="0" y1="0" x2="0" y2="5" style="visibility: inherit;" fill="rgb(0, 0, 0)" stroke="rgb(204, 204, 204)" stroke-width="1px"></line><line x1="23.203125" y1="0" x2="23.203125" y2="5" style="visibility: inherit;" fill="rgb(0, 0, 0)" stroke="rgb(204, 204, 204)" stroke-width="1px"></line><line x1="46.40625" y1="0" x2="46.40625" y2="5" style="visibility: inherit;" fill="rgb(0, 0, 0)" stroke="rgb(204, 204, 204)" stroke-width="1px"></line><line x1="69.609375" y1="0" x2="69.609375" y2="5" style="visibility: inherit;" fill="rgb(0, 0, 0)" stroke="rgb(204, 204, 204)" stroke-width="1px"></line><line x1="92.8125" y1="0" x2="92.8125" y2="5" style="visibility: inherit;" fill="rgb(0, 0, 0)" stroke="rgb(204, 204, 204)" stroke-width="1px"></line><line x1="116.015625" y1="0" x2="116.015625" y2="5" style="visibility: inherit;" fill="rgb(0, 0, 0)" stroke="rgb(204, 204, 204)" stroke-width="1px"></line><line x1="139.21875" y1="0" x2="139.21875" y2="5" style="visibility: inherit;" fill="rgb(0, 0, 0)" stroke="rgb(204, 204, 204)" stroke-width="1px"></line><line x1="162.421875" y1="0" x2="162.421875" y2="5" style="visibility: inherit;" fill="rgb(0, 0, 0)" stroke="rgb(204, 204, 204)" stroke-width="1px"></line><line x1="185.625" y1="0" x2="185.625" y2="5" style="visibility: inherit;" fill="rgb(0, 0, 0)" stroke="rgb(204, 204, 204)" stroke-width="1px"></line><line x1="208.828125" y1="0" x2="208.828125" y2="5" style="visibility: inherit;" fill="rgb(0, 0, 0)" stroke="rgb(204, 204, 204)" stroke-width="1px"></line><line x1="232.03125" y1="0" x2="232.03125" y2="5" style="visibility: inherit;" fill="rgb(0, 0, 0)" stroke="rgb(204, 204, 204)" stroke-width="1px"></line><line x1="255.234375" y1="0" x2="255.234375" y2="5" style="visibility: inherit;" fill="rgb(0, 0, 0)" stroke="rgb(204, 204, 204)" stroke-width="1px"></line><line x1="278.4375" y1="0" x2="278.4375" y2="5" style="visibility: inherit;" fill="rgb(0, 0, 0)" stroke="rgb(204, 204, 204)" stroke-width="1px"></line></g><g transform="translate(0, 8)"><text x="0" y="0" dx="0em" dy="0.95em" style="text-anchor: middle; visibility: hidden; font-family: Roboto, sans-serif; font-size: 12px; font-weight: 200;" fill="rgb(33, 33, 33)" stroke="none" stroke-width="1px">-50</text><text x="23.203125" y="0" dx="0em" dy="0.95em" style="text-anchor: middle; visibility: inherit; font-family: Roboto, sans-serif; font-size: 12px; font-weight: 200;" fill="rgb(33, 33, 33)" stroke="none" stroke-width="1px">0</text><text x="46.40625" y="0" dx="0em" dy="0.95em" style="text-anchor: middle; visibility: hidden; font-family: Roboto, sans-serif; font-size: 12px; font-weight: 200;" fill="rgb(33, 33, 33)" stroke="none" stroke-width="1px">50</text><text x="69.609375" y="0" dx="0em" dy="0.95em" style="text-anchor: middle; visibility: inherit; font-family: Roboto, sans-serif; font-size: 12px; font-weight: 200;" fill="rgb(33, 33, 33)" stroke="none" stroke-width="1px">100</text><text x="92.8125" y="0" dx="0em" dy="0.95em" style="text-anchor: middle; visibility: hidden; font-family: Roboto, sans-serif; font-size: 12px; font-weight: 200;" fill="rgb(33, 33, 33)" stroke="none" stroke-width="1px">150</text><text x="116.015625" y="0" dx="0em" dy="0.95em" style="text-anchor: middle; visibility: inherit; font-family: Roboto, sans-serif; font-size: 12px; font-weight: 200;" fill="rgb(33, 33, 33)" stroke="none" stroke-width="1px">200</text><text x="139.21875" y="0" dx="0em" dy="0.95em" style="text-anchor: middle; visibility: hidden; font-family: Roboto, sans-serif; font-size: 12px; font-weight: 200;" fill="rgb(33, 33, 33)" stroke="none" stroke-width="1px">250</text><text x="162.421875" y="0" dx="0em" dy="0.95em" style="text-anchor: middle; visibility: inherit; font-family: Roboto, sans-serif; font-size: 12px; font-weight: 200;" fill="rgb(33, 33, 33)" stroke="none" stroke-width="1px">300</text><text x="185.625" y="0" dx="0em" dy="0.95em" style="text-anchor: middle; visibility: hidden; font-family: Roboto, sans-serif; font-size: 12px; font-weight: 200;" fill="rgb(33, 33, 33)" stroke="none" stroke-width="1px">350</text><text x="208.828125" y="0" dx="0em" dy="0.95em" style="text-anchor: middle; visibility: inherit; font-family: Roboto, sans-serif; font-size: 12px; font-weight: 200;" fill="rgb(33, 33, 33)" stroke="none" stroke-width="1px">400</text><text x="232.03125" y="0" dx="0em" dy="0.95em" style="text-anchor: middle; visibility: hidden; font-family: Roboto, sans-serif; font-size: 12px; font-weight: 200;" fill="rgb(33, 33, 33)" stroke="none" stroke-width="1px">450</text><text x="255.234375" y="0" dx="0em" dy="0.95em" style="text-anchor: middle; visibility: inherit; font-family: Roboto, sans-serif; font-size: 12px; font-weight: 200;" fill="rgb(33, 33, 33)" stroke="none" stroke-width="1px">500</text><text x="278.4375" y="0" dx="0em" dy="0.95em" style="text-anchor: middle; visibility: hidden; font-family: Roboto, sans-serif; font-size: 12px; font-weight: 200;" fill="rgb(33, 33, 33)" stroke="none" stroke-width="1px">550</text></g><line x1="0" y1="0" x2="278.4375" y2="0" fill="rgb(0, 0, 0)" stroke="rgb(204, 204, 204)" stroke-width="1px"></line></g></g></g></g></svg>