<svg viewBox="0 0 330 200" xmlns="http://www.w3.org/2000/svg"><g><g><g><g><g><line x1="61.953125" y1="177" x2="56.953125" y2="177" style="visibility: inherit;" fill="rgb(0, 0, 0)" stroke="rgb(204, 204, 204)" stroke-width="1px"></line><line x1="61.953125" y1="163.3846153846154" x2="56.953125" y2="163.3846153846154" style="visibility: inherit;" fill="rgb(0, 0, 0)" stroke="rgb(204, 204, 204)" stroke-width="1px"></line><line x1="61.953125" y1="149.76923076923077" x2="56.953125" y2="149.76923076923077" style="visibility: inherit;" fill="rgb(0, 0, 0)" stroke="rgb(204, 204, 204)" stroke-width="1px"></line><line x1="61.953125" y1="136.15384615384613" x2="56.953125" y2="136.15384615384613" style="visibility: inherit;" fill="rgb(0, 0, 0)" stroke="rgb(204, 204, 204)" stroke-width="1px"></line><line x1="61.953125" y1="122.53846153846153" x2="56.953125" y2="122.53846153846153" style="visibility: inherit;" fill="rgb(0, 0, 0)" stroke="rgb(204, 204, 204)" stroke-width="1px"></line><line x1="61.953125" y1="108.92307692307693" x2="56.953125" y2="108.92307692307693" style="visibility: inherit;" fill="rgb(0, 0, 0)" stroke="rgb(204, 204, 204)" stroke-width="1px"></line><line x1="61.953125" y1="95.30769230769232" x2="56.953125" y2="95.30769230769232" style="visibility: inherit;" fill="rgb(0, 0, 0)" stroke="rgb(204, 204, 204)" stroke-width="1px"></line><line x1="61.953125" y1="81.6923076923077" x2="56.953125" y2="81.6923076923077" style="visibility: inherit;" fill="rgb(0, 0, 0)" stroke="rgb(204, 204, 204)" stroke-width="1px"></line><line x1="61.953125" y1="68.07692307692307" x2="56.953125" y2="68.07692307692307" style="visibility: inherit;" fill="rgb(0, 0, 0)" stroke="rgb(204, 204, 204)" stroke-width="1px"></line><line x1="61.953125" y1="54.46153846153847" x2="56.953125" y2="54.46153846153847" style="visibility: inherit;" fill="rgb(0, 0, 0)" stroke="rgb(204, 204, 204)" stroke-width="1px"></line><line x1="61.953125" y1="40.84615384615386" x2="56.953125" y2="40.84615384615386" style="visibility: inherit;" fill="rgb(0, 0, 0)" stroke="rgb(204, 204, 204)" stroke-width="1px"></line><line x1="61.953125" y1="27.230769230769234" x2="56.953125" y2="27.230769230769234" style="visibility: inherit;" fill="rgb(0, 0, 0)" stroke="rgb(204, 204, 204)" stroke-width="1px"></line><line x1="61.953125" y1="13.615384615384606" x2="56.953125" y2="13.615384615384606" style="visibility: inherit;" fill="rgb(0, 0, 0)" stroke="rgb(204, 204, 204)" stroke-width="1px"></line><line x1="61.953125" y1="0" x2="56.953125" y2="0" style="visibility: inherit;" fill="rgb(0, 0, 0)" stroke="rgb(204, 204, 204)" stroke-width="1px"></line></g><g transform="translate(51.953125, 0)"><text x="0" y="177" dx="0em" dy="0.3em" style="text-anchor: end; visibility: hidden; font-family: Roboto, sans-serif; font-size: 12px; font-weight: 200;" fill="rgb(33, 33, 33)" stroke="none" stroke-width="1px">0.01</text><text x="0" y="163.3846153846154" dx="0em" dy="0.3em" style="text-anchor: end; visibility: inherit; font-family: Roboto, sans-serif; font-size: 12px; font-weight: 200;" fill="rgb(33, 33, 33)" stroke="none" stroke-width="1px">0.015</text><text x="0" y="149.76923076923077" dx="0em" dy="0.3em" style="text-anchor: end; visibility: hidden; font-family: Roboto, sans-serif; font-size: 12px; font-weight: 200;" fill="rgb(33, 33, 33)" stroke="none" stroke-width="1px">0.02</text><text x="0" y="136.15384615384613" dx="0em" dy="0.3em" style="text-anchor: end; visibility: inherit; font-family: Roboto, sans-serif; font-size: 12px; font-weight: 200;" fill="rgb(33, 33, 33)" stroke="none" stroke-width="1px">0.025</text><text x="0" y="122.53846153846153" dx="0em" dy="0.3em" style="text-anchor: end; visibility: hidden; font-family: Roboto, sans-serif; font-size: 12px; font-weight: 200;" fill="rgb(33, 33, 33)" stroke="none" stroke-width="1px">0.03</text><text x="0" y="108.92307692307693" dx="0em" dy="0.3em" style="text-anchor: end; visibility: inherit; font-family: Roboto, sans-serif; font-size: 12px; font-weight: 200;" fill="rgb(33, 33, 33)" stroke="none" stroke-width="1px">0.035</text><text x="0" y="95.30769230769232" dx="0em" dy="0.3em" style="text-anchor: end; visibility: hidden; font-family: Roboto, sans-serif; font-size: 12px; font-weight: 200;" fill="rgb(33, 33, 33)" stroke="none" stroke-width="1px">0.04</text><text x="0" y="81.6923076923077" dx="0em" dy="0.3em" style="text-anchor: end; visibility: inherit; font-family: Roboto, sans-serif; font-size: 12px; font-weight: 200;" fill="rgb(33, 33, 33)" stroke="none" stroke-width="1px">0.045</text><text x="0" y="68.07692307692307" dx="0em" dy="0.3em" style="text-anchor: end; visibility: hidden; font-family: Roboto, sans-serif; font-size: 12px; font-weight: 200;" fill="rgb(33, 33, 33)" stroke="none" stroke-width="1px">0.05</text><text x="0" y="54.46153846153847" dx="0em" dy="0.3em" style="text-anchor: end; visibility: inherit; font-family: Roboto, sans-serif; font-size: 12px; font-weight: 200;" fill="rgb(33, 33, 33)" stroke="none" stroke-width="1px">0.055</text><text x="0" y="40.84615384615386" dx="0em" dy="0.3em" style="text-anchor: end; visibility: hidden; font-family: Roboto, sans-serif; font-size: 12px; font-weight: 200;" fill="rgb(33, 33, 33)" stroke="none" stroke-width="1px">0.06</text><text x="0" y="27.230769230769234" dx="0em" dy="0.3em" style="text-anchor: end; visibility: inherit; font-family: Roboto, sans-serif; font-size: 12px; font-weight: 200;" fill="rgb(33, 33, 33)" stroke="none" stroke-width="1px">0.065</text><text x="0" y="13.615384615384606" dx="0em" dy="0.3em" style="text-anchor: end; visibility: hidden; font-family: Roboto, sans-serif; font-size: 12px; font-weight: 200;" fill="rgb(33, 33, 33)" stroke="none" stroke-width="1px">0.07</text><text x="0" y="0" dx="0em" dy="0.3em" style="text-anchor: end; visibility: hidden; font-family: Roboto, sans-serif; font-size: 12px; font-weight: 200;" fill="rgb(33, 33, 33)" stroke="none" stroke-width="1px">0.075</text></g><line x1="61.953125" y1="0" x2="61.953125" y2="177" fill="rgb(0, 0, 0)" stroke="rgb(204, 204, 204)" stroke-width="1px"></line></g></g><g transform="translate(61, 0)" clip-path="url(#clip_0)"><clipPath id="clip_0"><rect width="268" height="177"></rect></clipPath><g><g><g><line x1="0" y1="0" x2="0" y2="177" fill="rgb(0, 0, 0)" stroke="rgb(66, 66, 66)" stroke-width="1px" opacity="0.25"></line><line x1="22.337239583333332" y1="0" x2="22.337239583333332" y2="177" fill="rgb(0, 0, 0)" stroke="rgb(66, 66, 66)" stroke-width="1px" opacity="0.25"></line><line x1="44.674479166666664" y1="0" x2="44.674479166666664" y2="177" fill="rgb(0, 0, 0)" stroke="rgb(66, 66, 66)" stroke-width="1px" opacity="0.25"></line><line x1="67.01171875" y1="0" x2="67.01171875" y2="177" fill="rgb(0, 0, 0)" stroke="rgb(66, 66, 66)" stroke-width="1px" opacity="0.25"></line><line x1="89.34895833333333" y1="0" x2="89.34895833333333" y2="177" fill="rgb(0, 0, 0)" stroke="rgb(66, 66, 66)" stroke-width="1px" opacity="0.25"></line><line x1="111.68619791666667" y1="0" x2="111.68619791666667" y2="177" fill="rgb(0, 0, 0)" stroke="rgb(66, 66, 66)" stroke-width="1px" opacity="0.25"></line><line x1="134.0234375" y1="0" x2="134.0234375" y2="177" fill="rgb(0, 0, 0)" stroke="rgb(66, 66, 66)" stroke-width="1px" opacity="0.25"></line><line x1="156.36067708333334" y1="0" x2="156.36067708333334" y2="177" fill="rgb(0, 0, 0)" stroke="rgb(66, 66, 66)" stroke-width="1px" opacity="0.25"></line><line x1="178.69791666666666" y1="0" x2="178.69791666666666" y2="177" fill="rgb(0, 0, 0)" stroke="rgb(66, 66, 66)" stroke-width="1px" opacity="0.25"></line><line x1="201.03515625" y1="0" x2="201.03515625" y2="177" fill="rgb(0, 0, 0)" stroke="rgb(66, 66, 66)" stroke-width="1px" opacity="0.25"></line><line x1="223.37239583333334" y1="0" x2="223.37239583333334" y2="177" fill="rgb(0, 0, 0)" stroke="rgb(66, 66, 66)" stroke-width="1px" opacity="0.25"></line><line x1="245.70963541666666" y1="0" x2="245.70963541666666" y2="177" fill="rgb(0, 0, 0)" stroke="rgb(66, 66, 66)" stroke-width="1px" opacity="0.25"></line><line x1="268.046875" y1="0" x2="268.046875" y2="177" fill="rgb(0, 0, 0)" stroke="rgb(66, 66, 66)" stroke-width="1px" opacity="0.25"></line></g><g><line x1="0" y1="177" x2="268.046875" y2="177" fill="rgb(0, 0, 0)" stroke="rgb(66, 66, 66)" stroke-width="1px" opacity="0.25"></line><line x1="0" y1="163.3846153846154" x2="268.046875" y2="163.3846153846154" fill="rgb(0, 0, 0)" stroke="rgb(66, 66, 66)" stroke-width="1px" opacity="0.25"></line><line x1="0" y1="149.76923076923077" x2="268.046875" y2="149.76923076923077" fill="rgb(0, 0, 0)" stroke="rgb(66, 66, 66)" stroke-width="1px" opacity="0.25"></line><line x1="0" y1="136.15384615384613" x2="268.046875" y2="136.15384615384613" fill="rgb(0, 0, 0)" stroke="rgb(66, 66, 66)" stroke-width="1px" opacity="0.25"></line><line x1="0" y1="122.53846153846153" x2="268.046875" y2="122.53846153846153" fill="rgb(0, 0, 0)" stroke="rgb(66, 66, 66)" stroke-width="1px" opacity="0.25"></line><line x1="0" y1="108.92307692307693" x2="268.046875" y2="108.92307692307693" fill="rgb(0, 0, 0)" stroke="rgb(66, 66, 66)" stroke-width="1px" opacity="0.25"></line><line x1="0" y1="95.30769230769232" x2="268.046875" y2="95.30769230769232" fill="rgb(0, 0, 0)" stroke="rgb(66, 66, 66)" stroke-width="1px" opacity="0.25"></line><line x1="0" y1="81.6923076923077" x2="268.046875" y2="81.6923076923077" fill="rgb(0, 0, 0)" stroke="rgb(66, 66, 66)" stroke-width="1px" opacity="0.25"></line><line x1="0" y1="68.07692307692307" x2="268.046875" y2="68.07692307692307" fill="rgb(0, 0, 0)" stroke="rgb(66, 66, 66)" stroke-width="1px" opacity="0.25"></line><line x1="0" y1="54.46153846153847" x2="268.046875" y2="54.46153846153847" fill="rgb(0, 0, 0)" stroke="rgb(66, 66, 66)" stroke-width="1px" opacity="0.25"></line><line x1="0" y1="40.84615384615386" x2="268.046875" y2="40.84615384615386" fill="rgb(0, 0, 0)" stroke="rgb(66, 66, 66)" stroke-width="1px" opacity="0.25"></line><line x1="0" y1="27.230769230769234" x2="268.046875" y2="27.230769230769234" fill="rgb(0, 0, 0)" stroke="rgb(66, 66, 66)" stroke-width="1px" opacity="0.25"></line><line x1="0" y1="13.615384615384606" x2="268.046875" y2="13.615384615384606" fill="rgb(0, 0, 0)" stroke="rgb(66, 66, 66)" stroke-width="1px" opacity="0.25"></line><line x1="0" y1="0" x2="268.046875" y2="0" fill="rgb(0, 0, 0)" stroke="rgb(66, 66, 66)" stroke-width="1px" opacity="0.25"></line></g></g></g><g><g><line x1="0" y1="204.23076923076923" x2="268.046875" y2="204.23076923076923" fill="rgb(0, 0, 0)" stroke="rgb(153, 153, 153)" stroke-width="1.5px"></line></g></g><g><g><line x1="22.337239583333332" y1="0" x2="22.337239583333332" y2="177" fill="rgb(0, 0, 0)" stroke="rgb(153, 153, 153)" stroke-width="1.5px"></line></g></g><g><g><g><g><g><path stroke="rgb(255, 112, 67)" stroke-width="2px" d="M31.272135416666668,-0.9631452079584433L31.71888020833333,3.903750048157883L32.165625,8.072045409652247L32.612369791666666,11.693735719575063L33.05911458333333,16.253858638410584L33.505859375,20.950908742289283L33.95260416666667,21.359084155780064L34.399348958333334,25.23012323715811L34.84609375,27.32197551867153L35.29283854166666,31.904657435355237L35.739583333333336,34.44700666713104L36.186328125,40.38016689268554L36.63307291666666,40.47573556431202L37.07981770833334,43.165489956574156L37.526562500000004,46.53978418790465L37.973307291666664,50.13206153195344L38.42005208333334,53.117739007269364L38.866796875,55.927031907560725L39.313541666666666,56.989478698245215L39.76028645833333,61.017886194759974L40.20703125,64.65334463004248L40.65377604166667,66.6108618353634L41.10052083333333,69.83819546367579L41.547265625,72.37119127595115L41.99401041666667,73.0458183750927L42.44075520833333,75.63588564068394L42.8875,76.16904093584539L43.33424479166666,76.58745508877823L43.78098958333333,78.02926023161936L44.227734375000004,79.45280468081509L44.674479166666664,81.19467919286143L45.12122395833333,81.02053378536499L45.567968750000006,84.10637728924765L46.014713541666666,85.16377511080422L46.46145833333333,87.41476934778471L46.908203125,88.78105296133218L47.35494791666667,89.85869407410709L47.801692708333334,91.50012553967845L48.2484375,91.63248176578905L48.69518229166667,91.83796015045046L49.14192708333333,90.5164541128016L49.588671875,93.32814408813802L50.03541666666667,95.55583047645531L50.48216145833333,95.91145255983069L50.92890625,97.97560401818502L51.37565104166667,99.69920925672123L51.82239583333333,100.4347946005961L52.269140625,98.76240018171856L52.715885416666666,100.22812317019071L53.16263020833333,101.59106447727395L53.609375,102.54186098282239L54.05611979166667,102.62692831046814L54.502864583333334,103.73516207802142L54.949609374999994,103.4214701131133L55.39635416666667,104.02539928774158L55.843098958333336,103.2757438835096L56.289843749999996,102.79066487466233L56.73658854166667,105.21065665487792L57.18333333333334,106.47770577745094L57.630078125,106.03969214191524L58.07682291666667,107.5478796554512L58.52356770833333,109.75215723472277L58.9703125,108.88925829513563L59.41705729166667,109.69084789055496L59.86380208333333,111.47915633186597L60.310546875,110.86187771725822L60.75729166666667,111.23365591259473L61.204036458333334,112.4884987628422L61.65078125,113.87659695894673L62.09752604166666,114.14709506262496L62.544270833333336,114.66384626433437L62.991015624999996,114.60116876137594L63.43776041666666,115.81955456671369L63.88450520833334,116.8337729899628L64.33125,115.20916868755936L64.77799479166667,115.72474686623825L65.22473958333333,116.51111708153935L65.671484375,117.1729735131014L66.11822916666667,118.62682830936329L66.56497395833333,119.22807865711636L67.01171875,119.62517774969045L67.45846354166666,120.19154289333004L67.90520833333333,119.40896744296356L68.351953125,120.62270254903126L68.79869791666667,121.53920875749687L69.24544270833334,120.28165023047286L69.6921875,119.61532547232795L70.13893229166666,121.1952037210853L70.58567708333332,121.54496470434249L71.032421875,120.3431857280805L71.47916666666667,121.6949359682311L71.92591145833333,122.96928221854989L72.37265625,123.75645484298677L72.81940104166667,122.83870779093078L73.26614583333333,124.58593147489091L73.712890625,124.11134361643268L74.15963541666667,124.59852384715941L74.60638020833333,123.75281530089819L75.05312500000001,124.98993574522063L75.49986979166667,126.0818195142414L75.94661458333333,125.38336773503222L76.39335937499999,124.70464033450035L76.84010416666668,126.29472596753078L77.28684895833334,125.81261703739244L77.73359375,125.72581471929449L78.18033854166667,125.29038813026294L78.62708333333333,127.03953830647932L79.07382812499999,127.1071033625557L79.52057291666667,127.40218602617797L79.96731770833334,127.16481452446847L80.4140625,127.07076550373743L80.86080729166667,128.55326984755857L81.30755208333333,128.0310800798236L81.754296875,128.37610180175065L82.20104166666665,126.56726327077466L82.64778645833334,127.64392546505512L83.09453125,128.0359938933208L83.54127604166666,129.45056917355063L83.98802083333334,128.5962283277112L84.434765625,128.98538493251237L84.88151041666666,129.04622169676222L85.32825520833335,129.54300701868368L85.775,129.72713188633267L86.22174479166667,130.96974996968612L86.66848958333333,132.2228357205843L87.115234375,132.96829629233576L87.56197916666666,132.3699558848529L88.00872395833333,132.39430089623679L88.45546875000001,131.77884029324346L88.90221354166667,130.4323904494512L89.34895833333333,133.0053765757308L89.795703125,132.91780007061834L90.24244791666666,132.4452760463986L90.68919270833332,132.8224648828618L91.13593750000001,133.79675649376586L91.58268229166667,133.17861473607758L92.02942708333333,132.30472085733626L92.47617187499999,132.97445429388026L92.92291666666667,134.01743543116103L93.36966145833333,135.4100159523955L93.81640625,135.39586954086985L94.26315104166667,135.3860446815351L94.70989583333333,135.48304494326194L95.156640625,135.27017648374274L95.60338541666667,135.51696090497333L96.05013020833333,135.84299217131087L96.496875,135.31308793841075L96.94361979166668,136.05845169591788L97.39036458333334,135.71165905447305L97.837109375,135.8826964858264L98.28385416666666,135.2501081912342L98.73059895833333,135.06504081465695L99.17734375,135.5362297347475L99.62408854166667,135.617230721468L100.07083333333334,136.7677040281665L100.517578125,137.625366142053L100.96432291666666,138.5724108461491L101.41106770833333,137.9863435170805L101.8578125,137.97181487469865L102.30455729166667,137.27558115127314L102.75130208333334,136.8974745099518L103.198046875,138.45601105791812L103.64479166666666,137.47218337578605L104.09153645833332,137.80976324127244L104.53828125,139.1850536488568L104.98502604166667,138.99266405747477L105.43177083333333,138.8744690372393L105.878515625,138.00053506218467L106.32526041666667,138.5991900419272L106.77200520833333,138.10031523986962L107.21875,138.77951911270432L107.66549479166667,138.9629609953154L108.11223958333333,140.36403233234816L108.55898437500001,140.30471564142593L109.00572916666667,141.41470992359424L109.45247395833333,140.92475882828592L109.89921874999999,140.26001981661167L110.34596354166668,141.4416387048826L110.79270833333334,141.87295374401282L111.239453125,141.53468455381682L111.68619791666667,141.84576475235014L112.13294270833333,141.3982591569233L112.57968749999999,140.4566278687693L113.02643229166667,142.03166224732078L113.47317708333334,141.71332381150495L113.919921875,141.79714882637805L114.36666666666667,142.56436855997245L114.81341145833333,141.8055175259814L115.26015625,142.23377734512718L115.70690104166665,142.42893648201604L116.15364583333334,142.04445550840953L116.600390625,142.62451177836573L117.04713541666666,143.11140006231093L117.49388020833334,142.68829428269711L117.940625,143.0026347180904L118.38736979166666,142.789429213584L118.83411458333335,143.73114627910334L119.280859375,142.99274765989634L119.72760416666667,144.0871652415344L120.17434895833333,144.1736865083178L120.62109375,144.61940521926786L121.06783854166666,143.42762433753765L121.51458333333333,143.5000926427945L121.96132812500001,143.26067478266017L122.40807291666667,143.11036943723906L122.85481770833333,143.35327883238605L123.3015625,143.79873639609957L123.74830729166666,144.5362457089539L124.19505208333332,144.5816646946756L124.64179687500001,144.6785644917889L125.08854166666667,144.79195605323702L125.53528645833333,143.80922095953403L125.98203124999999,143.7992549266846L126.42877604166667,145.03448946771073L126.87552083333333,145.8968803793016L127.322265625,145.88149823192313L127.76901041666667,145.99084510563253L128.21575520833332,145.58427278769003L128.6625,145.13086682302944L129.10924479166667,145.00805127834425L129.55598958333334,145.12261086555486L130.002734375,144.69039910576808L130.44947916666666,145.50960689831095L130.89622395833334,146.63567685651233L131.34296875,146.80682691765605L131.78971354166666,147.1587896309569L132.23645833333333,147.0504476657719L132.683203125,147.12368835350983L133.12994791666665,147.21448297979026L133.57669270833333,147.06832673864213L134.0234375,147.3479482450469L134.47018229166667,147.4825108965497L134.91692708333332,147.8356216548195L135.363671875,147.6840641937716L135.81041666666667,147.4829611111L136.25716145833331,148.24344522479905L136.70390625,148.58671655215142L137.1506510416667,148.56472786089324L137.59739583333334,148.799784782147L138.044140625,148.78557535932626L138.49088541666669,149.46978444688145L138.93763020833333,148.90750047464743L139.384375,148.79777725141528L139.83111979166665,148.81228376481013L140.27786458333333,148.5567400513658L140.724609375,148.63793269974175L141.17135416666665,149.17878247470506L141.61809895833332,149.99709221180635L142.06484375,150.15180218537617L142.51158854166667,150.53332749612497L142.95833333333334,149.52338604601334L143.40507812500002,149.52254406999506L143.85182291666666,149.96180235472207L144.29856770833334,149.88322213688699L144.7453125,149.26546388643965L145.19205729166666,150.02775349484673L145.63880208333333,150.11854239494446L146.085546875,149.93614339208648L146.53229166666665,150.44308091763745L146.97903645833333,150.57549515932027L147.42578125,149.952472509971L147.87252604166665,150.62519474013033L148.31927083333335,150.095047648771L148.76601562500002,151.01947201895274L149.21276041666667,150.89827193521455L149.65950520833334,150.68302717261082L150.10625000000002,150.8373411499002L150.55299479166666,151.7090933049321L150.99973958333334,151.63641933899567L151.44648437499998,151.6671520384086L151.89322916666666,151.4419754163812L152.33997395833333,151.55843877844202L152.78671874999998,151.26227160494074L153.23346354166665,151.53234873029228L153.68020833333335,152.64923084449964L154.126953125,153.00007383765558L154.57369791666667,153.08768810659333L155.02044270833335,152.68161068686425L155.4671875,152.81069245901085L155.91393229166667,153.05727055006895L156.36067708333334,152.42801553439077L156.807421875,152.81956928216616L157.25416666666666,152.83493528190098L157.70091145833334,153.69124050438265L158.14765624999998,152.56257793375997L158.59440104166666,153.24756475774092L159.04114583333333,153.01058260859864L159.487890625,153.43000751614736L159.93463541666668,153.46537280515622L160.38138020833335,153.9689572497814L160.828125,153.9928774580585L161.27486979166667,153.9429332847226L161.72161458333335,153.940368434341L162.168359375,154.2401158386545L162.61510416666667,153.70815428845236L163.06184895833331,153.26862189438617L163.50859375,154.2488799129389L163.95533854166666,154.04620100786138L164.4020833333333,154.0045486305714L164.848828125,154.36021214672826L165.29557291666669,154.81195960243653L165.74231770833333,154.6948321848656L166.1890625,154.32827865143963L166.63580729166668,154.10348134810397L167.08255208333333,154.24019908376414L167.529296875,155.62300281849386L167.97604166666667,154.811917214508L168.42278645833332,154.46831806558356L168.86953125,154.19018713683064L169.31627604166667,155.26031693341744L169.76302083333331,155.05109120872908L170.209765625,155.37138956467683L170.6565104166667,155.23140721818342L171.10325520833334,155.65032316304487L171.55,155.75231079172363L171.99674479166669,155.318260984167L172.44348958333333,155.02849189387283L172.890234375,155.36787684298696L173.33697916666665,155.94780884200924L173.78372395833333,155.86491933978047L174.23046875,155.41822685402806L174.67721354166665,155.4088654434811L175.12395833333332,155.9150890071103L175.570703125,156.54095589777972L176.01744791666667,156.41150125200699L176.46419270833334,156.431779333425L176.91093750000002,156.3693494104487L177.35768229166666,156.15100118307356L177.80442708333334,156.36313577397289L178.251171875,156.28865952846962L178.69791666666666,156.04967889292803L179.14466145833333,156.66653119249938L179.59140625,156.4798042890702L180.03815104166665,157.36254190630436L180.48489583333333,157.47811842558357L180.931640625,157.42161068859855L181.37838541666665,156.9908324737095L181.82513020833335,156.7593938899208L182.27187500000002,156.1184227251007L182.71861979166667,155.805097310263L183.16536458333334,155.79643620668628L183.61210937500002,156.30444334197233L184.05885416666666,156.37347288829844L184.50559895833334,156.79548266426227L184.95234374999998,156.28233289381245L185.39908854166666,156.033543443948L185.84583333333333,156.10848006154527L186.29257812499998,156.41031478234925L186.73932291666665,156.7502299671239L187.18606770833335,157.77718224627816L187.6328125,157.80238600902354L188.07955729166667,158.1178247907179L188.52630208333335,158.40864216694203L188.973046875,158.69050138515536L189.41979166666667,158.29889947092988L189.86653645833334,158.6107642287997L190.31328125,158.03331689355392L190.76002604166666,157.12624872057668L191.20677083333334,157.62895955089306L191.65351562499998,158.40441797548368L192.10026041666666,158.21108761056564L192.54700520833333,157.79886911654285L192.99375,158.13730568127886L193.44049479166668,157.09049432584035L193.88723958333335,157.7310131826809L194.333984375,158.2863322400338L194.78072916666667,157.98449958307341L195.22747395833335,157.76928486927488L195.67421875,157.93061640975742L196.12096354166667,158.37298333760972L196.56770833333331,158.4138036675267L197.014453125,159.4386935981015L197.46119791666666,159.50391459590975L197.9079427083333,159.57443959696852L198.3546875,160.21733083788658L198.80143229166669,159.32714387775997L199.24817708333333,159.98907756577088L199.694921875,160.03774823042613L200.14166666666668,160.13815516316302L200.58841145833333,160.09581050188922L201.03515625,160.04591750954233L201.48190104166667,159.539179550735L201.92864583333332,159.53799747791024L202.375390625,159.81091725998647L202.82213541666667,159.75325256872904L203.26888020833331,159.838276802922L203.715625,159.25067821569263L204.1623697916667,159.77749789795106L204.60911458333334,159.82840678578648L205.055859375,160.416362537475L205.50260416666669,159.59974516107076L205.94934895833333,159.1708654498846L206.39609375,159.60112517093364L206.84283854166665,159.95458219381098L207.28958333333333,160.10105961612325L207.736328125,160.94955295790572L208.18307291666665,160.78794043618964L208.62981770833332,160.60893027033296L209.0765625,160.5628157416658L209.52330729166667,161.04472932391803L209.97005208333334,160.56105386213832L210.41679687500002,161.31959382293445L210.86354166666666,160.57644019987572L211.31028645833334,160.82751494924062L211.75703125,160.39971020113404L212.20377604166666,160.84140432650432L212.65052083333333,160.7930770292051L213.097265625,160.85233158590324L213.54401041666665,161.21820551266353L213.99075520833333,161.2377826032414L214.4375,161.04702726944532L214.88424479166665,160.90716474664907L215.33098958333335,160.50440324699196L215.77773437500002,161.24330800937645L216.22447916666667,161.25077467385228L216.67122395833334,161.62558885303957L217.11796875000002,161.5232887128416L217.56471354166666,161.60597323854384L218.01145833333334,161.93528025688346L218.45820312499998,161.57924901358945L218.90494791666666,161.66592143103003L219.35169270833333,161.90710098015288L219.79843749999998,161.82860574633855L220.24518229166665,161.11457881315064L220.69192708333335,161.30260653256713L221.138671875,161.7321246841648L221.58541666666667,161.80756669768135L222.03216145833335,162.3074688784754L222.47890625,162.40151230322482L222.92565104166667,161.61622817459155L223.37239583333334,162.0805423612099L223.819140625,162.05599931919167L224.26588541666666,162.00954328801387L224.71263020833334,162.60800216552843L225.15937499999998,161.67671240130022L225.60611979166666,161.60427224538253L226.05286458333333,161.59239532384498L226.499609375,161.99228496681354L226.94635416666668,161.58163134973745L227.39309895833335,162.06802849993318L227.83984375,161.3834734010365L228.28658854166667,162.57421341180648L228.73333333333335,162.72975376538037L229.180078125,163.1093487701924L229.62682291666667,162.79981546359542L230.07356770833331,163.10930235951895L230.5203125,163.49663889591824L230.96705729166666,163.22897991327326L231.4138020833333,162.87582937467212L231.860546875,162.8685283267248L232.30729166666669,162.5892932465385L232.75403645833333,162.95454150327922L233.20078125,163.28133618788326L233.64752604166668,163.49858405266048L234.09427083333333,163.3358247529818L234.541015625,163.26190165083042L234.98776041666667,162.65828807340475L235.43450520833332,163.24001924781768L235.88125,162.5793498253153L236.32799479166667,162.99634980554416L236.77473958333331,163.55869755888693L237.221484375,163.41762923148104L237.6682291666667,162.78384538146568L238.11497395833334,162.78716474610349L238.56171875,163.31075554530946L239.00846354166669,163.35813648459302L239.45520833333333,163.5576427867508L239.901953125,163.83710129250218L240.34869791666665,163.63883670543646L240.79544270833333,163.00755670569274L241.2421875,162.89731212956406L241.68893229166665,162.85352331539076L242.13567708333332,162.3307933751533L242.582421875,162.15910291543037L243.02916666666667,162.5476050405849L243.47591145833334,162.3216180451968L243.92265625000002,162.4887384443437L244.36940104166666,162.86991618159377L244.81614583333334,163.24849096035888L245.262890625,163.33616554954745" style="fill: none;" fill="none"></path></g></g></g></g><g opacity="0.2"><g><g><g><path stroke="rgb(255, 112, 67)" stroke-width="2px" d="M30.378645833333334,-3.3529268778287475L30.825390625,1.7496319000537532L31.272135416666668,6.137386101942791L31.71888020833333,11.203932785070869L32.165625,14.324406156173128L32.612369791666666,17.12622828208484L33.05911458333333,23.09401060526188L33.505859375,27.996463867334235L33.95260416666667,21.971346231607306L34.399348958333334,31.036675916268294L34.84609375,30.459752014050128L35.29283854166666,38.77867777760214L35.739583333333336,38.260529671724036L36.186328125,49.27990605051703L36.63307291666666,40.61908856034281L37.07981770833334,47.200121352305786L37.526562500000004,51.60122538988407L37.973307291666664,55.52047745539592L38.42005208333334,57.59625517404998L38.866796875,60.14097123191908L39.313541666666666,58.583148878354294L39.76028645833333,67.0604974260697L40.20703125,70.10653227567673L40.65377604166667,69.54713764098975L41.10052083333333,74.67919590381476L41.547265625,76.17068499326706L41.99401041666667,74.05775902362971L42.44075520833333,79.52098653866695L42.8875,76.9687738785377L43.33424479166666,77.21507631815398L43.78098958333333,80.19196794583247L44.227734375000004,81.58812135457993L44.674479166666664,83.80749096090979L45.12122395833333,80.75931567412158L45.567968750000006,88.7351425450582L46.014713541666666,86.74987184313628L46.46145833333333,90.79126070325194L46.908203125,90.8304783816521L47.35494791666667,91.47515574326881L47.801692708333334,93.9622727380349L48.2484375,91.83101610495494L48.69518229166667,92.14617772744253L49.14192708333333,88.53419505632841L49.588671875,97.54567905114249L50.03541666666667,98.8973600589312L50.48216145833333,96.4448856848937L50.92890625,101.0718312057165L51.37565104166667,102.28461711452559L51.82239583333333,101.53817261640845L52.269140625,96.25380855340225L52.715885416666666,102.42670765289894L53.16263020833333,103.63547643789879L53.609375,103.96805574114508L54.05611979166667,102.7545293019368L54.502864583333334,105.39751272935135L54.949609374999994,102.9509321657511L55.39635416666667,104.93129304968394L55.843098958333336,102.1512607771617L56.289843749999996,102.06304636139137L56.73658854166667,108.84064432520134L57.18333333333334,108.37827946131048L57.630078125,105.38267168861168L58.07682291666667,109.81016092575514L58.52356770833333,113.05857360363007L58.9703125,107.59490988575496L59.41705729166667,110.89323228368393L59.86380208333333,114.16161899383253L60.310546875,109.93595979534663L60.75729166666667,111.79132320559943L61.204036458333334,114.37076303821343L61.65078125,115.95874425310356L62.09752604166666,114.5528422181423L62.544270833333336,115.4389730668985L62.991015624999996,114.50715250693835L63.43776041666666,117.64713327472029L63.88450520833334,118.35510062483641L64.33125,112.77226223395422L64.77799479166667,116.49811413425667L65.22473958333333,117.690672404491L65.671484375,118.16575816044441L66.11822916666667,120.8076105037561L66.56497395833333,120.12995417874592L67.01171875,120.22082638855166L67.45846354166666,121.04109060878939L67.90520833333333,118.23510426741379L68.351953125,122.44330520813284L68.79869791666667,122.9139680701953L69.24544270833334,118.39531243993686L69.6921875,118.61583833511061L70.13893229166666,123.56502109422134L70.58567708333332,122.0696061792282L71.032421875,118.54051726368758L71.47916666666667,123.72256132845698L71.92591145833333,124.88080159402811L72.37265625,124.93721377964205L72.81940104166667,121.46208721284685L73.26614583333333,127.20676700083109L73.712890625,123.39946182874533L74.15963541666667,125.3292941932495L74.60638020833333,122.48425248150645L75.05312500000001,126.84561641170428L75.49986979166667,127.7196451677726L75.94661458333333,124.33569006621838L76.39335937499999,123.68654923370251L76.84010416666668,128.67985441707648L77.28684895833334,125.0894536421849L77.73359375,125.5956112421476L78.18033854166667,124.63724824671564L78.62708333333333,129.66326357080388L79.07382812499999,127.20845094667033L79.52057291666667,127.84481002161137L79.96731770833334,126.80875727190421L80.4140625,126.92969197264084L80.86080729166667,130.77702636329028L81.30755208333333,127.24779542822105L81.754296875,128.8936343846413L82.20104166666665,123.85400547431067L82.64778645833334,129.25891875647582L83.09453125,128.62409653571936L83.54127604166666,131.5724320938954L83.98802083333334,127.31471705895203L84.434765625,129.56911983971415L84.88151041666666,129.13747684313702L85.32825520833335,130.28818500156586L85.775,130.00331918780623L86.22174479166667,132.8336770947163L86.66848958333333,134.10246434693153L87.115234375,134.08648714996303L87.56197916666666,131.4724452736286L88.00872395833333,132.4308184133126L88.45546875000001,130.85564938875345L88.90221354166667,128.41271568376285L89.34895833333333,136.86485576515014L89.795703125,132.7864353129497L90.24244791666666,131.736490010069L90.68919270833332,133.3882481375566L91.13593750000001,135.25819391012192L91.58268229166667,132.25140209954517L92.02942708333333,130.99388003922428L92.47617187499999,133.97905444869627L92.92291666666667,135.58190713708217L93.36966145833333,137.4988867342472L93.81640625,135.37464992358136L94.26315104166667,135.371307392533L94.70989583333333,135.62854533585218L95.156640625,134.95087379446397L95.60338541666667,135.88713753681915L96.05013020833333,136.33203907081713L96.496875,134.51823158906055L96.94361979166668,137.17649733217863L97.39036458333334,135.1914700923058L97.837109375,136.13925263285637L98.28385416666666,134.30122574934592L98.73059895833333,134.78743974979108L99.17734375,136.24301311488335L99.62408854166667,135.73873220154871L100.07083333333334,138.49341398821426L100.517578125,138.9118593128828L100.96432291666666,139.9929779022932L101.41106770833333,137.10724252347762L101.8578125,137.9500219111259L102.30455729166667,136.23123056613483L102.75130208333334,136.33031454796975L103.198046875,140.79381587986762L103.64479166666666,135.99644185258794L104.09153645833332,138.316133039502L104.53828125,141.24798926023337L104.98502604166667,138.7040796704017L105.43177083333333,138.69717650688614L105.878515625,136.6896340996027L106.32526041666667,139.49717251154092L106.77200520833333,137.3520030367833L107.21875,139.79832492195644L107.66549479166667,139.238123819232L108.11223958333333,142.4656393378973L108.55898437500001,140.21574060504253L109.00572916666667,143.07970134684672L109.45247395833333,140.1898321853234L109.89921874999999,139.2629112991003L110.34596354166668,143.21406703728897L110.79270833333334,142.51992630270811L111.239453125,141.02728076852287L111.68619791666667,142.31238505015006L112.13294270833333,140.7270007637831L112.57968749999999,139.04418093653825L113.02643229166667,144.39421381514805L113.47317708333334,141.23581615778116L113.919921875,141.92288634868768L114.36666666666667,143.71519816036408L114.81341145833333,140.6672409749948L115.26015625,142.87616707384586L115.70690104166665,142.72167518734932L116.15364583333334,141.46773404799976L116.600390625,143.49459618330002L117.04713541666666,143.84173248822873L117.49388020833334,142.0536356132764L117.940625,143.4741453711803L118.38736979166666,142.46962095682437L118.83411458333335,145.14372187738235L119.280859375,141.88514973108585L119.72760416666667,145.72879161399143L120.17434895833333,144.3034684084929L120.62109375,145.28798328569303L121.06783854166666,141.6399530149423L121.51458333333333,143.60879510067977L121.96132812500001,142.90154799245872L122.40807291666667,142.88491141910737L122.85481770833333,143.71764292510656L123.3015625,144.4669227416699L123.74830729166666,145.64250967823543L124.19505208333332,144.64979317325813L124.64179687500001,144.82391418745885L125.08854166666667,144.96204339540924L125.53528645833333,142.33511831897957L125.98203124999999,143.78430587741045L126.42877604166667,146.8873412792499L126.87552083333333,147.1904667466879L127.322265625,145.85842501085537L127.76901041666667,146.15486541619669L128.21575520833332,144.97441431077627L128.6625,144.45075787603855L129.10924479166667,144.82382796131648L129.55598958333334,145.29445024637076L130.002734375,144.04208146608795L130.44947916666666,146.73841858712527L130.89622395833334,148.32478179381442L131.34296875,147.06355200937162L131.78971354166666,147.68673370090815L132.23645833333333,146.88793471799445L132.683203125,147.23354938511665L133.12994791666665,147.35067491921095L133.57669270833333,146.84909237691988L134.0234375,147.767380504654L134.47018229166667,147.68435487380395L134.91692708333332,148.36528779222417L135.363671875,147.45672800219978L135.81041666666667,147.18130648709263L136.25716145833331,149.38417139534766L136.70390625,149.10162354317995L137.1506510416667,148.531744824006L137.59739583333334,149.1523701640276L138.044140625,148.76426122509517L138.49088541666669,150.4960980782142L138.93763020833333,148.0640745162964L139.384375,148.63319241656708L139.83111979166665,148.83404353490243L140.27786458333333,148.17342448119933L140.724609375,148.75972167230572L141.17135416666665,149.99005713715005L141.61809895833332,151.22455681745822L142.06484375,150.3838671457309L142.51158854166667,151.10561546224815L142.95833333333334,148.00847387084593L143.40507812500002,149.52128110596766L143.85182291666666,150.62068978181253L144.29856770833334,149.76535181013438L144.7453125,148.33882651076865L145.19205729166666,151.17118790745735L145.63880208333333,150.2547257450911L146.085546875,149.6625448877995L146.53229166666665,151.20348720596385L146.97903645833333,150.77411652184452L147.42578125,149.01793853594708L147.87252604166665,151.63427808536935L148.31927083333335,149.29982701173196L148.76601562500002,152.40610857422536L149.21276041666667,150.71647180960727L149.65950520833334,150.36016002870525L150.10625000000002,151.0688121158343L150.55299479166666,153.01672153748L150.99973958333334,151.527408390091L151.44648437499998,151.713251087528L151.89322916666666,151.10421048334013L152.33997395833333,151.73313382153327L152.78671874999998,150.8180208446888L153.23346354166665,151.93746441831956L153.68020833333335,154.32455401581066L154.126953125,153.52633832738948L154.57369791666667,153.21910950999992L155.02044270833335,152.07249455727066L155.4671875,153.0043151172308L155.91393229166667,153.42713768665607L156.36067708333334,151.48413301087345L156.807421875,153.40689990382927L157.25416666666666,152.85798428150324L157.70091145833334,154.97569833810513L158.14765624999998,150.86958407782592L158.59440104166666,154.27504499371236L159.04114583333333,152.6551093848852L159.487890625,154.05914487747046L159.93463541666668,153.51842073866953L160.38138020833335,154.72433391671913L160.828125,154.02875777047413L161.27486979166667,153.8680170247188L161.72161458333335,153.93652115876858L162.168359375,154.68973694512476L162.61510416666667,152.9102119631492L163.06184895833331,152.60932330328686L163.50859375,155.71926694076794L163.95533854166666,153.74218265024516L164.4020833333333,153.94207006463637L164.848828125,154.89370742096352L165.29557291666669,155.48958078599895L165.74231770833333,154.51914105850918L166.1890625,153.77844835130068L166.63580729166668,153.7662853931005L167.08255208333333,154.4452756872544L167.529296875,157.69720842058842L167.97604166666667,153.5952888085292L168.42278645833332,153.9529193421969L168.86953125,153.77299074370129L169.31627604166667,156.86551162829767L169.76302083333331,154.73725262169654L170.209765625,155.85183709859848L170.6565104166667,155.02143369844327L171.10325520833334,156.27869708033708L171.55,155.90529223474172L171.99674479166669,154.66718627283205L172.44348958333333,154.5938382584315L172.890234375,155.8769542666582L173.33697916666665,156.81770684054266L173.78372395833333,155.74058508643736L174.23046875,154.74818812539945L174.67721354166665,155.39482332766056L175.12395833333332,156.67442435255418L175.570703125,157.47975623378386L176.01744791666667,156.21731928334785L176.46419270833334,156.46219645555203L176.91093750000002,156.27570452598425L177.35768229166666,155.82347884201087L177.80442708333334,156.68133766032184L178.251171875,156.17694516021473L178.69791666666666,155.69120793961562L179.14466145833333,157.59180964185643L179.59140625,156.19971393392635L180.03815104166665,158.68664833215567L180.48489583333333,157.65148320450234L180.931640625,157.336849083121L181.37838541666665,156.344665151376L181.82513020833335,156.41223601423778L182.27187500000002,155.1569659778705L182.71861979166667,155.33510918800647L183.16536458333334,155.78344455132117L183.61210937500002,157.0664540449014L184.05885416666666,156.47701720778758L184.50559895833334,157.42849732820804L184.95234374999998,155.5126082381377L185.39908854166666,155.66035926915134L185.84583333333333,156.22088498794116L186.29257812499998,156.8630668635552L186.73932291666665,157.2601027442859L187.18606770833335,159.31761066500957L187.6328125,157.84019165314163L188.07955729166667,158.5909829632594L188.52630208333335,158.84486823127818L188.973046875,159.11329021247533L189.41979166666667,157.7114965995917L189.86653645833334,159.0785613656044L190.31328125,157.16714589068522L190.76002604166666,155.76564646111083L191.20677083333334,158.38302579636758L191.65351562499998,159.56760561236968L192.10026041666666,157.92109206318855L192.54700520833333,157.18054137550868L192.99375,158.6449605283829L193.44049479166668,155.52027729268258L193.88723958333335,158.69179146794173L194.333984375,159.11931082606316L194.78072916666667,157.53175059763285L195.22747395833335,157.44646279857707L195.67421875,158.17261372048122L196.12096354166667,159.03653372938817L196.56770833333331,158.47503416240215L197.014453125,160.97602849396375L197.46119791666666,159.6017460926221L197.9079427083333,159.68022709855666L198.3546875,161.18166769926364L198.80143229166669,157.99186343757006L199.24817708333333,160.98197809778728L199.694921875,160.11075422740902L200.14166666666668,160.2887655622684L200.58841145833333,160.03229350997853L201.03515625,159.97107802102198L201.48190104166667,158.77907261252403L201.92864583333332,159.5362243686731L202.375390625,160.22029693310077L202.82213541666667,159.66675553184288L203.26888020833331,159.96581315421142L203.715625,158.36928033484864L204.1623697916667,160.56772742133873L204.60911458333334,159.90477011753964L205.055859375,161.29829616500783L205.50260416666669,158.3748190964644L205.94934895833333,158.52754588310535L206.39609375,160.2465147525072L206.84283854166665,160.48476772812697L207.28958333333333,160.3207757495917L207.736328125,162.2222929705794L208.18307291666665,160.5455216536155L208.62981770833332,160.34041502154793L209.0765625,160.49364394866504L209.52330729166667,161.76759969729645L209.97005208333334,159.83554066946874L210.41679687500002,162.45740376412868L210.86354166666666,159.46170976528754L211.31028645833334,161.20412707328796L211.75703125,159.7580030789742L212.20377604166666,161.50394551455975L212.65052083333333,160.72058608325628L213.097265625,160.94121342095045L213.54401041666665,161.76701640280393L213.99075520833333,161.26714823910822L214.4375,160.76089426875114L214.88424479166665,160.69737096245473L215.33098958333335,159.90026099750628L215.77773437500002,162.35166515295322L216.22447916666667,161.26197467056605L216.67122395833334,162.18781012182052L217.11796875000002,161.36983850254464L217.56471354166666,161.7300000270972L218.01145833333334,162.4292407843929L218.45820312499998,161.0452021486484L218.90494791666666,161.79593005719093L219.35169270833333,162.26887030383716L219.79843749999998,161.71086289561714L220.24518229166665,160.04353841336874L220.69192708333335,161.58464811169185L221.138671875,162.37640191156132L221.58541666666667,161.92072971795614L222.03216145833335,163.05732214966645L222.47890625,162.54257744034896L222.92565104166667,160.4383019816417L223.37239583333334,162.77701364113736L223.819140625,162.01918475616438L224.26588541666666,161.93985924124718L224.71263020833334,163.50569048180031L225.15937499999998,160.27977775495785L225.60611979166666,161.495612011506L226.05286458333333,161.57457994153867L226.499609375,162.59211943126644L226.94635416666668,160.96565092412325L227.39309895833335,162.79762422522674L227.83984375,160.3566407526915L228.28658854166667,164.36032342796142L228.73333333333335,162.96306429574122L229.180078125,163.67874127741044L229.62682291666667,162.33551550369995L230.07356770833331,163.57353270340425L230.5203125,164.07764370051714L230.96705729166666,162.82749143930582L231.4138020833333,162.34610356677038L231.860546875,162.85757675480383L232.30729166666669,162.17044062625902L232.75403645833333,163.50241388839024L233.20078125,163.77152821478936L233.64752604166668,163.82445584982634L234.09427083333333,163.09168580346383L234.541015625,163.15101699760328L234.98776041666667,161.75286770726626L235.43450520833332,164.11261600943712L235.88125,161.5883456915617L236.32799479166667,163.62184977588745L236.77473958333331,164.40221918890109L237.221484375,163.20602674037218L237.6682291666667,161.83316960644262L238.11497395833334,162.79214379306023L238.56171875,164.09614174411846L239.00846354166669,163.4292078935183L239.45520833333333,163.85690223998748L239.901953125,164.25628905112927L240.34869791666665,163.34143982483792L240.79544270833333,162.06063670607713L241.2421875,162.73194526537108L241.68893229166665,162.78784009413076L242.13567708333332,161.5466984647971L242.582421875,161.90156722584595L243.02916666666667,163.13035822831668L243.47591145833334,161.98263755211462L243.92265625000002,162.73941904306412L244.36940104166666,163.4416827874688L244.81614583333334,163.8163531285066L245.262890625,163.4676774333303" style="fill: none;" fill="none"></path></g></g></g></g></g></g><g transform="translate(61, 177)" clip-path="url(#clip_1)"><clipPath id="clip_1"><rect width="268" height="23"></rect></clipPath><g><g><line x1="0" y1="0" x2="0" y2="5" style="visibility: inherit;" fill="rgb(0, 0, 0)" stroke="rgb(204, 204, 204)" stroke-width="1px"></line><line x1="22.337239583333332" y1="0" x2="22.337239583333332" y2="5" style="visibility: inherit;" fill="rgb(0, 0, 0)" stroke="rgb(204, 204, 204)" stroke-width="1px"></line><line x1="44.674479166666664" y1="0" x2="44.674479166666664" y2="5" style="visibility: inherit;" fill="rgb(0, 0, 0)" stroke="rgb(204, 204, 204)" stroke-width="1px"></line><line x1="67.01171875" y1="0" x2="67.01171875" y2="5" style="visibility: inherit;" fill="rgb(0, 0, 0)" stroke="rgb(204, 204, 204)" stroke-width="1px"></line><line x1="89.34895833333333" y1="0" x2="89.34895833333333" y2="5" style="visibility: inherit;" fill="rgb(0, 0, 0)" stroke="rgb(204, 204, 204)" stroke-width="1px"></line><line x1="111.68619791666667" y1="0" x2="111.68619791666667" y2="5" style="visibility: inherit;" fill="rgb(0, 0, 0)" stroke="rgb(204, 204, 204)" stroke-width="1px"></line><line x1="134.0234375" y1="0" x2="134.0234375" y2="5" style="visibility: inherit;" fill="rgb(0, 0, 0)" stroke="rgb(204, 204, 204)" stroke-width="1px"></line><line x1="156.36067708333334" y1="0" x2="156.36067708333334" y2="5" style="visibility: inherit;" fill="rgb(0, 0, 0)" stroke="rgb(204, 204, 204)" stroke-width="1px"></line><line x1="178.69791666666666" y1="0" x2="178.69791666666666" y2="5" style="visibility: inherit;" fill="rgb(0, 0, 0)" stroke="rgb(204, 204, 204)" stroke-width="1px"></line><line x1="201.03515625" y1="0" x2="201.03515625" y2="5" style="visibility: inherit;" fill="rgb(0, 0, 0)" stroke="rgb(204, 204, 204)" stroke-width="1px"></line><line x1="223.37239583333334" y1="0" x2="223.37239583333334" y2="5" style="visibility: inherit;" fill="rgb(0, 0, 0)" stroke="rgb(204, 204, 204)" stroke-width="1px"></line><line x1="245.70963541666666" y1="0" x2="245.70963541666666" y2="5" style="visibility: inherit;" fill="rgb(0, 0, 0)" stroke="rgb(204, 204, 204)" stroke-width="1px"></line><line x1="268.046875" y1="0" x2="268.046875" y2="5" style="visibility: inherit;" fill="rgb(0, 0, 0)" stroke="rgb(204, 204, 204)" stroke-width="1px"></line></g><g transform="translate(0, 8)"><text x="0" y="0" dx="0em" dy="0.95em" style="text-anchor: middle; visibility: hidden; font-family: Roboto, sans-serif; font-size: 12px; font-weight: 200;" fill="rgb(33, 33, 33)" stroke="none" stroke-width="1px">-50</text><text x="22.337239583333332" y="0" dx="0em" dy="0.95em" style="text-anchor: middle; visibility: inherit; font-family: Roboto, sans-serif; font-size: 12px; font-weight: 200;" fill="rgb(33, 33, 33)" stroke="none" stroke-width="1px">0</text><text x="44.674479166666664" y="0" dx="0em" dy="0.95em" style="text-anchor: middle; visibility: hidden; font-family: Roboto, sans-serif; font-size: 12px; font-weight: 200;" fill="rgb(33, 33, 33)" stroke="none" stroke-width="1px">50</text><text x="67.01171875" y="0" dx="0em" dy="0.95em" style="text-anchor: middle; visibility: inherit; font-family: Roboto, sans-serif; font-size: 12px; font-weight: 200;" fill="rgb(33, 33, 33)" stroke="none" stroke-width="1px">100</text><text x="89.34895833333333" y="0" dx="0em" dy="0.95em" style="text-anchor: middle; visibility: hidden; font-family: Roboto, sans-serif; font-size: 12px; font-weight: 200;" fill="rgb(33, 33, 33)" stroke="none" stroke-width="1px">150</text><text x="111.68619791666667" y="0" dx="0em" dy="0.95em" style="text-anchor: middle; visibility: inherit; font-family: Roboto, sans-serif; font-size: 12px; font-weight: 200;" fill="rgb(33, 33, 33)" stroke="none" stroke-width="1px">200</text><text x="134.0234375" y="0" dx="0em" dy="0.95em" style="text-anchor: middle; visibility: hidden; font-family: Roboto, sans-serif; font-size: 12px; font-weight: 200;" fill="rgb(33, 33, 33)" stroke="none" stroke-width="1px">250</text><text x="156.36067708333334" y="0" dx="0em" dy="0.95em" style="text-anchor: middle; visibility: inherit; font-family: Roboto, sans-serif; font-size: 12px; font-weight: 200;" fill="rgb(33, 33, 33)" stroke="none" stroke-width="1px">300</text><text x="178.69791666666666" y="0" dx="0em" dy="0.95em" style="text-anchor: middle; visibility: hidden; font-family: Roboto, sans-serif; font-size: 12px; font-weight: 200;" fill="rgb(33, 33, 33)" stroke="none" stroke-width="1px">350</text><text x="201.03515625" y="0" dx="0em" dy="0.95em" style="text-anchor: middle; visibility: inherit; font-family: Roboto, sans-serif; font-size: 12px; font-weight: 200;" fill="rgb(33, 33, 33)" stroke="none" stroke-width="1px">400</text><text x="223.37239583333334" y="0" dx="0em" dy="0.95em" style="text-anchor: middle; visibility: hidden; font-family: Roboto, sans-serif; font-size: 12px; font-weight: 200;" fill="rgb(33, 33, 33)" stroke="none" stroke-width="1px">450</text><text x="245.70963541666666" y="0" dx="0em" dy="0.95em" style="text-anchor: middle; visibility: inherit; font-family: Roboto, sans-serif; font-size: 12px; font-weight: 200;" fill="rgb(33, 33, 33)" stroke="none" stroke-width="1px">500</text><text x="268.046875" y="0" dx="0em" dy="0.95em" style="text-anchor: middle; visibility: hidden; font-family: Roboto, sans-serif; font-size: 12px; font-weight: 200;" fill="rgb(33, 33, 33)" stroke="none" stroke-width="1px">550</text></g><line x1="0" y1="0" x2="268.046875" y2="0" fill="rgb(0, 0, 0)" stroke="rgb(204, 204, 204)" stroke-width="1px"></line></g></g></g></g></svg>