<svg viewBox="0 0 330 200" xmlns="http://www.w3.org/2000/svg"><g><g><g><g><g><line x1="61.953125" y1="177" x2="56.953125" y2="177" style="visibility: inherit;" fill="rgb(0, 0, 0)" stroke="rgb(204, 204, 204)" stroke-width="1px"></line><line x1="61.953125" y1="159.3" x2="56.953125" y2="159.3" style="visibility: inherit;" fill="rgb(0, 0, 0)" stroke="rgb(204, 204, 204)" stroke-width="1px"></line><line x1="61.953125" y1="141.6" x2="56.953125" y2="141.6" style="visibility: inherit;" fill="rgb(0, 0, 0)" stroke="rgb(204, 204, 204)" stroke-width="1px"></line><line x1="61.953125" y1="123.89999999999999" x2="56.953125" y2="123.89999999999999" style="visibility: inherit;" fill="rgb(0, 0, 0)" stroke="rgb(204, 204, 204)" stroke-width="1px"></line><line x1="61.953125" y1="106.2" x2="56.953125" y2="106.2" style="visibility: inherit;" fill="rgb(0, 0, 0)" stroke="rgb(204, 204, 204)" stroke-width="1px"></line><line x1="61.953125" y1="88.5" x2="56.953125" y2="88.5" style="visibility: inherit;" fill="rgb(0, 0, 0)" stroke="rgb(204, 204, 204)" stroke-width="1px"></line><line x1="61.953125" y1="70.8" x2="56.953125" y2="70.8" style="visibility: inherit;" fill="rgb(0, 0, 0)" stroke="rgb(204, 204, 204)" stroke-width="1px"></line><line x1="61.953125" y1="53.10000000000001" x2="56.953125" y2="53.10000000000001" style="visibility: inherit;" fill="rgb(0, 0, 0)" stroke="rgb(204, 204, 204)" stroke-width="1px"></line><line x1="61.953125" y1="35.39999999999999" x2="56.953125" y2="35.39999999999999" style="visibility: inherit;" fill="rgb(0, 0, 0)" stroke="rgb(204, 204, 204)" stroke-width="1px"></line><line x1="61.953125" y1="17.700000000000017" x2="56.953125" y2="17.700000000000017" style="visibility: inherit;" fill="rgb(0, 0, 0)" stroke="rgb(204, 204, 204)" stroke-width="1px"></line><line x1="61.953125" y1="0" x2="56.953125" y2="0" style="visibility: inherit;" fill="rgb(0, 0, 0)" stroke="rgb(204, 204, 204)" stroke-width="1px"></line></g><g transform="translate(51.953125, 0)"><text x="0" y="177" dx="0em" dy="0.3em" style="text-anchor: end; visibility: hidden; font-family: Roboto, sans-serif; font-size: 12px; font-weight: 200;" fill="rgb(33, 33, 33)" stroke="none" stroke-width="1px">4e-3</text><text x="0" y="159.3" dx="0em" dy="0.3em" style="text-anchor: end; visibility: inherit; font-family: Roboto, sans-serif; font-size: 12px; font-weight: 200;" fill="rgb(33, 33, 33)" stroke="none" stroke-width="1px">6e-3</text><text x="0" y="141.6" dx="0em" dy="0.3em" style="text-anchor: end; visibility: hidden; font-family: Roboto, sans-serif; font-size: 12px; font-weight: 200;" fill="rgb(33, 33, 33)" stroke="none" stroke-width="1px">8e-3</text><text x="0" y="123.89999999999999" dx="0em" dy="0.3em" style="text-anchor: end; visibility: inherit; font-family: Roboto, sans-serif; font-size: 12px; font-weight: 200;" fill="rgb(33, 33, 33)" stroke="none" stroke-width="1px">0.01</text><text x="0" y="106.2" dx="0em" dy="0.3em" style="text-anchor: end; visibility: hidden; font-family: Roboto, sans-serif; font-size: 12px; font-weight: 200;" fill="rgb(33, 33, 33)" stroke="none" stroke-width="1px">0.012</text><text x="0" y="88.5" dx="0em" dy="0.3em" style="text-anchor: end; visibility: inherit; font-family: Roboto, sans-serif; font-size: 12px; font-weight: 200;" fill="rgb(33, 33, 33)" stroke="none" stroke-width="1px">0.014</text><text x="0" y="70.8" dx="0em" dy="0.3em" style="text-anchor: end; visibility: hidden; font-family: Roboto, sans-serif; font-size: 12px; font-weight: 200;" fill="rgb(33, 33, 33)" stroke="none" stroke-width="1px">0.016</text><text x="0" y="53.10000000000001" dx="0em" dy="0.3em" style="text-anchor: end; visibility: inherit; font-family: Roboto, sans-serif; font-size: 12px; font-weight: 200;" fill="rgb(33, 33, 33)" stroke="none" stroke-width="1px">0.018</text><text x="0" y="35.39999999999999" dx="0em" dy="0.3em" style="text-anchor: end; visibility: hidden; font-family: Roboto, sans-serif; font-size: 12px; font-weight: 200;" fill="rgb(33, 33, 33)" stroke="none" stroke-width="1px">0.02</text><text x="0" y="17.700000000000017" dx="0em" dy="0.3em" style="text-anchor: end; visibility: inherit; font-family: Roboto, sans-serif; font-size: 12px; font-weight: 200;" fill="rgb(33, 33, 33)" stroke="none" stroke-width="1px">0.022</text><text x="0" y="0" dx="0em" dy="0.3em" style="text-anchor: end; visibility: hidden; font-family: Roboto, sans-serif; font-size: 12px; font-weight: 200;" fill="rgb(33, 33, 33)" stroke="none" stroke-width="1px">0.024</text></g><line x1="61.953125" y1="0" x2="61.953125" y2="177" fill="rgb(0, 0, 0)" stroke="rgb(204, 204, 204)" stroke-width="1px"></line></g></g><g transform="translate(61, 0)" clip-path="url(#clip_0)"><clipPath id="clip_0"><rect width="268" height="177"></rect></clipPath><g><g><g><line x1="0" y1="0" x2="0" y2="177" fill="rgb(0, 0, 0)" stroke="rgb(66, 66, 66)" stroke-width="1px" opacity="0.25"></line><line x1="22.337239583333332" y1="0" x2="22.337239583333332" y2="177" fill="rgb(0, 0, 0)" stroke="rgb(66, 66, 66)" stroke-width="1px" opacity="0.25"></line><line x1="44.674479166666664" y1="0" x2="44.674479166666664" y2="177" fill="rgb(0, 0, 0)" stroke="rgb(66, 66, 66)" stroke-width="1px" opacity="0.25"></line><line x1="67.01171875" y1="0" x2="67.01171875" y2="177" fill="rgb(0, 0, 0)" stroke="rgb(66, 66, 66)" stroke-width="1px" opacity="0.25"></line><line x1="89.34895833333333" y1="0" x2="89.34895833333333" y2="177" fill="rgb(0, 0, 0)" stroke="rgb(66, 66, 66)" stroke-width="1px" opacity="0.25"></line><line x1="111.68619791666667" y1="0" x2="111.68619791666667" y2="177" fill="rgb(0, 0, 0)" stroke="rgb(66, 66, 66)" stroke-width="1px" opacity="0.25"></line><line x1="134.0234375" y1="0" x2="134.0234375" y2="177" fill="rgb(0, 0, 0)" stroke="rgb(66, 66, 66)" stroke-width="1px" opacity="0.25"></line><line x1="156.36067708333334" y1="0" x2="156.36067708333334" y2="177" fill="rgb(0, 0, 0)" stroke="rgb(66, 66, 66)" stroke-width="1px" opacity="0.25"></line><line x1="178.69791666666666" y1="0" x2="178.69791666666666" y2="177" fill="rgb(0, 0, 0)" stroke="rgb(66, 66, 66)" stroke-width="1px" opacity="0.25"></line><line x1="201.03515625" y1="0" x2="201.03515625" y2="177" fill="rgb(0, 0, 0)" stroke="rgb(66, 66, 66)" stroke-width="1px" opacity="0.25"></line><line x1="223.37239583333334" y1="0" x2="223.37239583333334" y2="177" fill="rgb(0, 0, 0)" stroke="rgb(66, 66, 66)" stroke-width="1px" opacity="0.25"></line><line x1="245.70963541666666" y1="0" x2="245.70963541666666" y2="177" fill="rgb(0, 0, 0)" stroke="rgb(66, 66, 66)" stroke-width="1px" opacity="0.25"></line><line x1="268.046875" y1="0" x2="268.046875" y2="177" fill="rgb(0, 0, 0)" stroke="rgb(66, 66, 66)" stroke-width="1px" opacity="0.25"></line></g><g><line x1="0" y1="177" x2="268.046875" y2="177" fill="rgb(0, 0, 0)" stroke="rgb(66, 66, 66)" stroke-width="1px" opacity="0.25"></line><line x1="0" y1="159.3" x2="268.046875" y2="159.3" fill="rgb(0, 0, 0)" stroke="rgb(66, 66, 66)" stroke-width="1px" opacity="0.25"></line><line x1="0" y1="141.6" x2="268.046875" y2="141.6" fill="rgb(0, 0, 0)" stroke="rgb(66, 66, 66)" stroke-width="1px" opacity="0.25"></line><line x1="0" y1="123.89999999999999" x2="268.046875" y2="123.89999999999999" fill="rgb(0, 0, 0)" stroke="rgb(66, 66, 66)" stroke-width="1px" opacity="0.25"></line><line x1="0" y1="106.2" x2="268.046875" y2="106.2" fill="rgb(0, 0, 0)" stroke="rgb(66, 66, 66)" stroke-width="1px" opacity="0.25"></line><line x1="0" y1="88.5" x2="268.046875" y2="88.5" fill="rgb(0, 0, 0)" stroke="rgb(66, 66, 66)" stroke-width="1px" opacity="0.25"></line><line x1="0" y1="70.8" x2="268.046875" y2="70.8" fill="rgb(0, 0, 0)" stroke="rgb(66, 66, 66)" stroke-width="1px" opacity="0.25"></line><line x1="0" y1="53.10000000000001" x2="268.046875" y2="53.10000000000001" fill="rgb(0, 0, 0)" stroke="rgb(66, 66, 66)" stroke-width="1px" opacity="0.25"></line><line x1="0" y1="35.39999999999999" x2="268.046875" y2="35.39999999999999" fill="rgb(0, 0, 0)" stroke="rgb(66, 66, 66)" stroke-width="1px" opacity="0.25"></line><line x1="0" y1="17.700000000000017" x2="268.046875" y2="17.700000000000017" fill="rgb(0, 0, 0)" stroke="rgb(66, 66, 66)" stroke-width="1px" opacity="0.25"></line><line x1="0" y1="0" x2="268.046875" y2="0" fill="rgb(0, 0, 0)" stroke="rgb(66, 66, 66)" stroke-width="1px" opacity="0.25"></line></g></g></g><g><g><line x1="0" y1="212.4" x2="268.046875" y2="212.4" fill="rgb(0, 0, 0)" stroke="rgb(153, 153, 153)" stroke-width="1.5px"></line></g></g><g><g><line x1="22.337239583333332" y1="0" x2="22.337239583333332" y2="177" fill="rgb(0, 0, 0)" stroke="rgb(153, 153, 153)" stroke-width="1.5px"></line></g></g><g><g><g><g><g><path stroke="rgb(255, 112, 67)" stroke-width="2px" d="M22.337239583333332,29.68985393419863L22.783984375000003,20.330263748858137L23.230729166666666,22.200254960297354L23.677473958333334,21.194284682816804L24.12421875,17.65321776298114L24.570963541666664,21.119560042549832L25.017708333333335,18.11095120324053L25.464453125,17.79290242852009L25.911197916666666,19.450200455863815L26.357942708333333,19.434066794749274L26.8046875,20.737653645906285L27.251432291666667,17.991734925486647L27.698177083333334,17.939545944031416L28.144921874999998,18.326503517566522L28.59166666666667,17.432405542453896L29.038411458333336,12.776694334606608L29.48515625,10.851104260810086L29.931901041666666,8.43497125299943L30.378645833333334,9.167781030358809L30.825390625,9.403551684875252L31.272135416666668,13.584041260003067L31.71888020833333,11.370261631980142L32.165625,14.758325046977127L32.612369791666666,15.900996824539375L33.05911458333333,20.839619155365792L33.505859375,19.686837071184588L33.95260416666667,19.80314335061162L34.399348958333334,17.99080853290543L34.84609375,17.159675080175504L35.29283854166666,23.784839875621905L35.739583333333336,24.28230718602526L36.186328125,25.19122504631304L36.63307291666666,26.22992774314367L37.07981770833334,28.763626515840535L37.526562500000004,31.674233172786572L37.973307291666664,35.154130632085234L38.42005208333334,39.946976086596216L38.866796875,42.7553939802022L39.313541666666666,43.26339851984738L39.76028645833333,44.38824127627387L40.20703125,46.73903113263432L40.65377604166667,46.24780421237898L41.10052083333333,50.1872469101643L41.547265625,50.94616844365008L41.99401041666667,48.9825661341832L42.44075520833333,53.1240358114135L42.8875,56.07931672911327L43.33424479166666,58.13073551945812L43.78098958333333,59.520747064924656L44.227734375000004,58.59472676984298L44.674479166666664,59.55542971028454L45.12122395833333,59.672430979809896L45.567968750000006,63.36459939993174L46.014713541666666,64.86501117150199L46.46145833333333,66.71221503287798L46.908203125,68.51200558108303L47.35494791666667,70.42428324945143L47.801692708333334,70.6689503948532L48.2484375,73.55788276095069L48.69518229166667,77.3391597254509L49.14192708333333,78.46992798631995L49.588671875,79.49747598743805L50.03541666666667,80.37224295467954L50.48216145833333,82.15329426947726L50.92890625,79.24102256908114L51.37565104166667,82.73772607781946L51.82239583333333,85.8084272541908L52.269140625,83.93058047046111L52.715885416666666,84.84558521330266L53.16263020833333,85.70915674996321L53.609375,86.57423055578437L54.05611979166667,88.12043158715467L54.502864583333334,89.55378509450257L54.949609374999994,92.37270552583514L55.39635416666667,91.73162262748465L55.843098958333336,90.30370098180047L56.289843749999996,89.79435033232852L56.73658854166667,89.58023171264459L57.18333333333334,90.53877877362687L57.630078125,89.4796789110787L58.07682291666667,91.70720157585068L58.52356770833333,94.04050434328033L58.9703125,94.7062176513488L59.41705729166667,95.71121360929696L59.86380208333333,99.46317189736301L60.310546875,100.42610344978057L60.75729166666667,98.85944839964439L61.204036458333334,99.61507800370534L61.65078125,102.91901899427224L62.09752604166666,104.5510865883532L62.544270833333336,104.54954104104655L62.991015624999996,103.727268115157L63.43776041666666,105.62453277943975L63.88450520833334,106.51408249371316L64.33125,107.84969312896173L64.77799479166667,107.14498450785779L65.22473958333333,105.84242925587239L65.671484375,105.9453605064329L66.11822916666667,107.73631733632543L66.56497395833333,108.26275184721624L67.01171875,107.27327809748574L67.45846354166666,108.17269891645029L67.90520833333333,107.63243465867947L68.351953125,107.19120053036397L68.79869791666667,109.37151339982978L69.24544270833334,109.12189804202339L69.6921875,109.25482326394928L70.13893229166666,109.66571721656092L70.58567708333332,109.57568810104112L71.032421875,109.28187522258627L71.47916666666667,109.09586169386665L71.92591145833333,110.57469578707075L72.37265625,111.14635606541549L72.81940104166667,112.88645209988543L73.26614583333333,111.28912705612535L73.712890625,114.02045720536918L74.15963541666667,114.04539533224353L74.60638020833333,115.5713818303743L75.05312500000001,115.19119033989303L75.49986979166667,115.69036759586331L75.94661458333333,114.65734681115268L76.39335937499999,112.90662801549267L76.84010416666668,115.56289755857247L77.28684895833334,114.94168543610728L77.73359375,114.18725176837299L78.18033854166667,115.45565623960645L78.62708333333333,117.48275762436838L79.07382812499999,117.19519192643791L79.52057291666667,117.871345740663L79.96731770833334,118.05295555925785L80.4140625,117.95063747606527L80.86080729166667,118.70687334085613L81.30755208333333,118.21769344475932L81.754296875,118.14385674904028L82.20104166666665,118.84626551634217L82.64778645833334,119.03867639014808L83.09453125,119.76692424645833L83.54127604166666,120.14270591009148L83.98802083333334,119.79337014030509L84.434765625,119.00210309920367L84.88151041666666,119.67533693833741L85.32825520833335,120.64408256693837L85.775,119.20846243312451L86.22174479166667,120.04567688381965L86.66848958333333,121.36303762287673L87.115234375,122.15102756122218L87.56197916666666,123.86928790181557L88.00872395833333,124.00764959361959L88.45546875000001,123.89245806802396L88.90221354166667,123.02151179921081L89.34895833333333,125.81558416537314L89.795703125,125.24786314428967L90.24244791666666,124.56068867988063L90.68919270833332,124.45397198585674L91.13593750000001,125.86467681221964L91.58268229166667,125.27205690886261L92.02942708333333,125.13441215825488L92.47617187499999,125.85713816864735L92.92291666666667,125.9497607940939L93.36966145833333,127.57742943194548L93.81640625,128.9393932509544L94.26315104166667,130.27954932663576L94.70989583333333,132.16447625436624L95.156640625,130.1718148289814L95.60338541666667,128.72634729347791L96.05013020833333,128.5047347200046L96.496875,127.50523121801794L96.94361979166668,128.9822449251877L97.39036458333334,128.04041125326555L97.837109375,127.13337494238735L98.28385416666666,127.65879682096553L98.73059895833333,127.48213868211337L99.17734375,129.23880295512453L99.62408854166667,131.3759722905301L100.07083333333334,131.65656577539102L100.517578125,132.94272967929635L100.96432291666666,134.05740594404932L101.41106770833333,133.6026772060275L101.8578125,132.55390232031226L102.30455729166667,131.7657046024482L102.75130208333334,131.03833921936038L103.198046875,130.28276203892756L103.64479166666666,130.60717654926856L104.09153645833332,129.8700077387886L104.53828125,132.08038423438055L104.98502604166667,132.47229357856025L105.43177083333333,132.5590300457031L105.878515625,131.36906397753063L106.32526041666667,130.46566858001415L106.77200520833333,130.74502639223851L107.21875,130.63449963688683L107.66549479166667,131.01555067813297L108.11223958333333,132.34624980161132L108.55898437500001,133.1689409203502L109.00572916666667,132.96769816560584L109.45247395833333,130.59347767745277L109.89921874999999,131.2434423913945L110.34596354166668,132.34664227800903L110.79270833333334,133.46124717496238L111.239453125,132.44472979755642L111.68619791666667,132.44771960959696L112.13294270833333,133.77181370741644L112.57968749999999,132.0560605423839L113.02643229166667,133.99535190058893L113.47317708333334,135.67814275752394L113.919921875,136.07073658693366L114.36666666666667,136.64388370194155L114.81341145833333,136.32417228238654L115.26015625,135.9549764805548L115.70690104166665,136.28554495415165L116.15364583333334,135.96022250259563L116.600390625,137.47306772309327L117.04713541666666,135.63986591972582L117.49388020833334,135.56270024822757L117.940625,135.59643265379432L118.38736979166666,134.91399776412823L118.83411458333335,135.73500239520536L119.280859375,136.25435277682104L119.72760416666667,137.25161553747392L120.17434895833333,137.92923682884538L120.62109375,138.18290022049047L121.06783854166666,138.3241855763417L121.51458333333333,137.43511391940842L121.96132812500001,137.0235203839131L122.40807291666667,135.26286027561355L122.85481770833333,136.89734955701664L123.3015625,138.49786681636238L123.74830729166666,138.7909377257768L124.19505208333332,139.68361471225285L124.64179687500001,138.44082345577755L125.08854166666667,138.7015614687662L125.53528645833333,138.72580260868435L125.98203124999999,139.29735219514708L126.42877604166667,139.46820778928006L126.87552083333333,138.9048663899708L127.322265625,139.45903735893418L127.76901041666667,140.94144949249892L128.21575520833332,140.13434441779535L128.6625,139.33084429722715L129.10924479166667,139.59525060294084L129.55598958333334,141.4442799235911L130.002734375,139.86055545392816L130.44947916666666,140.01564329331032L130.89622395833334,139.95017861762588L131.34296875,140.40268249981966L131.78971354166666,140.80694037317255L132.23645833333333,141.37593915679466L132.683203125,141.9009582651759L133.12994791666665,142.1806864999595L133.57669270833333,141.48514919268266L134.0234375,140.85171290196286L134.47018229166667,140.127143451913L134.91692708333332,139.3355802523159L135.363671875,140.50477096808333L135.81041666666667,139.95130092187154L136.25716145833331,141.63001684551494L136.70390625,140.62300650361215L137.1506510416667,141.04089303572795L137.59739583333334,140.94193787789237L138.044140625,140.67781522879534L138.49088541666669,141.37545945039116L138.93763020833333,142.673647484277L139.384375,142.71035635745187L139.83111979166665,142.47569964304958L140.27786458333333,142.0976586949849L140.724609375,141.8545903889551L141.17135416666665,142.23352069337454L141.61809895833332,143.9993820087867L142.06484375,144.14610428999407L142.51158854166667,144.09309869887258L142.95833333333334,143.7787641032447L143.40507812500002,144.90905128368198L143.85182291666666,143.98202453806078L144.29856770833334,143.47811352225585L144.7453125,144.2660968634483L145.19205729166666,144.7818946927337L145.63880208333333,146.41561546434747L146.085546875,145.7833808972525L146.53229166666665,146.2286743942104L146.97903645833333,144.6361931470455L147.42578125,143.45473611235153L147.87252604166665,143.0228329411419L148.31927083333335,144.07069371692967L148.76601562500002,145.57640384973664L149.21276041666667,144.94549900072263L149.65950520833334,144.3777216632065L150.10625000000002,144.29161905237416L150.55299479166666,145.2153037344717L150.99973958333334,144.27245981039422L151.44648437499998,144.369105274703L151.89322916666666,145.70519476494246L152.33997395833333,145.7202322156641L152.78671874999998,145.76785457954782L153.23346354166665,147.48814547539342L153.68020833333335,146.91461488764338L154.126953125,146.23477999499949L154.57369791666667,147.43965599637636L155.02044270833335,147.72148846902792L155.4671875,146.9140647171786L155.91393229166667,146.68950366736058L156.36067708333334,146.82560588671626L156.807421875,146.50554545397378L157.25416666666666,145.61154863625657L157.70091145833334,147.23008487740094L158.14765624999998,146.17191151473781L158.59440104166666,147.5984570937983L159.04114583333333,147.84475965493212L159.487890625,147.78302104908698L159.93463541666668,148.3607045966445L160.38138020833335,148.4380798089837L160.828125,148.84760372911902L161.27486979166667,149.62805089794105L161.72161458333335,149.9134922611267L162.168359375,149.43814127765896L162.61510416666667,147.9961405428368L163.06184895833331,147.5048164016526L163.50859375,148.53518052415674L163.95533854166666,149.09263251865877L164.4020833333333,148.2510020848064L164.848828125,148.97301942115715L165.29557291666669,148.49216271850878L165.74231770833333,148.44536289133677L166.1890625,147.02047325317886L166.63580729166668,147.0300033379038L167.08255208333333,147.88033473035335L167.529296875,149.66766319731258L167.97604166666667,150.07043718567124L168.42278645833332,148.86924428713698L168.86953125,147.1542450097047L169.31627604166667,149.02281231682556L169.76302083333331,147.46240577273701L170.209765625,148.36962325922033L170.6565104166667,148.96002273053753L171.10325520833334,149.57061806032556L171.55,149.3615754030466L171.99674479166669,149.76453777617633L172.44348958333333,149.54686997870456L172.890234375,149.784831026285L173.33697916666665,149.2771559313471L173.78372395833333,148.141059122788L174.23046875,149.56354855198092L174.67721354166665,150.440183023652L175.12395833333332,150.55071372600827L175.570703125,151.58721712738236L176.01744791666667,152.08849944649612L176.46419270833334,151.56224765824362L176.91093750000002,152.0686565126305L177.35768229166666,151.98452476160676L177.80442708333334,151.3371683186111L178.251171875,151.7090846567343L178.69791666666666,150.85548766241908L179.14466145833333,151.23575748584534L179.59140625,150.00605138499657L180.03815104166665,152.0640907363392L180.48489583333333,153.44248531230076L180.931640625,151.84343072775175L181.37838541666665,151.86706881994408L181.82513020833335,151.15500463656724L182.27187500000002,150.22616532459642L182.71861979166667,149.5075370631503L183.16536458333334,149.88949152249916L183.61210937500002,150.07422717522874L184.05885416666666,150.72748971223112L184.50559895833334,151.28203626291022L184.95234374999998,151.83902469488123L185.39908854166666,151.52227974049532L185.84583333333333,151.9716663119929L186.29257812499998,151.69924141497833L186.73932291666665,151.6996711798395L187.18606770833335,151.16495719807656L187.6328125,151.15982997891194L188.07955729166667,152.58819548533492L188.52630208333335,152.96729878691514L188.973046875,153.342065451787L189.41979166666667,153.69755615435307L189.86653645833334,153.57078709709504L190.31328125,153.25322246876573L190.76002604166666,152.1407040707154L191.20677083333334,152.43548692498405L191.65351562499998,152.37767634069203L192.10026041666666,152.32065526358952L192.54700520833333,151.7762616802017L192.99375,151.614083890692L193.44049479166668,150.71889552806354L193.88723958333335,152.06164479663693L194.333984375,153.2131306768103L194.78072916666667,152.76076081510743L195.22747395833335,152.7297557694695L195.67421875,151.31095710250628L196.12096354166667,152.28380310283833L196.56770833333331,153.89833688048563L197.014453125,153.53904838544454L197.46119791666666,153.68068585005298L197.9079427083333,153.77937181849418L198.3546875,154.52259902937197L198.80143229166669,153.14976099473526L199.24817708333333,154.11306707787386L199.694921875,154.511390444728L200.14166666666668,155.14293265527024L200.58841145833333,154.53627985997818L201.03515625,155.08320511659278L201.48190104166667,154.9246844530421L201.92864583333332,153.29141179787024L202.375390625,154.4189750230575L202.82213541666667,155.23443531982684L203.26888020833331,155.3018804022973L203.715625,155.1900331557873L204.1623697916667,153.7206933437188L204.60911458333334,152.9772007851839L205.055859375,155.19148619653524L205.50260416666669,154.64722740631842L205.94934895833333,157.14544385310438L206.39609375,156.3592076084699L206.84283854166665,155.095863084372L207.28958333333333,153.1622031153L207.736328125,153.14342391823274L208.18307291666665,152.557699453068L208.62981770833332,153.21575518010988L209.0765625,153.2997239722099L209.52330729166667,153.60440528859414L209.97005208333334,154.005492387755L210.41679687500002,154.8047963422795L210.86354166666666,154.32706805890857L211.31028645833334,154.76442141190802L211.75703125,153.74527772824845L212.20377604166666,154.78792124486495L212.65052083333333,156.6085990252139L213.097265625,156.3924485350872L213.54401041666665,156.2333764293924L213.99075520833333,155.78084294053227L214.4375,155.27475134746618L214.88424479166665,154.9419684399151L215.33098958333335,155.3271226874878L215.77773437500002,155.22451309088706L216.22447916666667,155.85222973159753L216.67122395833334,156.60914845105592L217.11796875000002,157.07961430288304L217.56471354166666,156.2297445646641L218.01145833333334,157.16497793997627L218.45820312499998,156.9486044127065L218.90494791666666,157.50435370286215L219.35169270833333,157.56181964348204L219.79843749999998,156.3503959934142L220.24518229166665,155.09270095573228L220.69192708333335,154.64359938634252L221.138671875,154.8268942926545L221.58541666666667,156.282510074107L222.03216145833335,157.07711538560875L222.47890625,156.53604210980347L222.92565104166667,156.72209998878904L223.37239583333334,155.64662644535642L223.819140625,156.86874898557568L224.26588541666666,157.51382267629924L224.71263020833334,157.55341015424324L225.15937499999998,156.78373339111207L225.60611979166666,158.01148700153587L226.05286458333333,158.84135355858956L226.499609375,158.8367561577049L226.94635416666668,159.10808894042893L227.39309895833335,159.20660270961955L227.83984375,158.07444203533433L228.28658854166667,157.9280602171284L228.73333333333335,157.077030986578L229.180078125,158.24913538346036L229.62682291666667,158.641981753405L230.07356770833331,158.6528702523238L230.5203125,158.3330928157822L230.96705729166666,157.70498953274225L231.4138020833333,156.4056880268385L231.860546875,157.10152112374783L232.30729166666669,157.94634962807643L232.75403645833333,157.29692968848676L233.20078125,156.5671433629741L233.64752604166668,157.7737084616512L234.09427083333333,158.5476430866444L234.541015625,159.09332475093447L234.98776041666667,158.42846790292828L235.43450520833332,158.3773121953098L235.88125,157.87096113257635L236.32799479166667,159.11682511206286L236.77473958333331,160.3140266537566L237.221484375,158.38882523796852L237.6682291666667,157.6362305920386L238.11497395833334,157.62510425939044L238.56171875,159.03752347495484L239.00846354166669,157.1325583023061L239.45520833333333,158.9311033988583L239.901953125,158.94957244334148L240.34869791666665,158.37534193940476L240.79544270833333,158.21147935970137L241.2421875,157.8403810991854L241.68893229166665,158.5385940116054L242.13567708333332,159.3787956816051L242.582421875,158.91740503375792L243.02916666666667,159.31269112491646L243.47591145833334,159.01730095961116L243.92265625000002,157.10815544705645L244.36940104166666,157.20044783692688L244.81614583333334,157.8764382130124L245.262890625,157.79313452273416" style="fill: none;" fill="none"></path></g></g></g></g><g opacity="0.2"><g><g><g><path stroke="rgb(255, 112, 67)" stroke-width="2px" d="M22.337239583333332,29.68985393419863L22.783984375000003,14.714509637653839L23.230729166666666,23.995446523278964L23.677473958333334,20.011263636499656L24.12421875,13.030000792443763L24.570963541666664,25.914759298414005L25.017708333333335,13.80859242528678L25.464453125,17.329184261709464L25.911197916666666,21.894393132627023L26.357942708333333,19.41011018827559L26.8046875,22.681210485845817L27.251432291666667,13.887800013273965L27.698177083333334,17.86143287792803L28.144921874999998,18.906181787699474L28.59166666666667,16.092309558391584L29.038411458333336,5.796411091089261L29.48515625,7.963533995300543L29.931901041666666,4.811385197192442L30.378645833333334,10.26688406020404L30.825390625,9.757186116278183L31.272135416666668,19.85454635471107L31.71888020833333,8.049665035307418L32.165625,19.8403532780707L32.612369791666666,17.614990954846157L33.05911458333333,28.24751754999162L33.505859375,17.957668861001743L33.95260416666667,19.9776024721563L34.399348958333334,15.272309088706981L34.84609375,15.912975666672002L35.29283854166666,33.72258340716363L35.739583333333336,25.028507986664785L36.186328125,26.55460165590049L36.63307291666666,27.787981664389385L37.07981770833334,32.564174493402255L37.526562500000004,36.04014303311707L37.973307291666664,40.37397673130037L38.42005208333334,47.13624419420959L38.866796875,46.96802079454066L39.313541666666666,44.02540532648565L39.76028645833333,46.07550540715457L40.20703125,50.265215912461294L40.65377604166667,45.51096383258702L41.10052083333333,56.09641095399858L41.547265625,52.084550743550075L41.99401041666667,46.03716267049314L42.44075520833333,59.3362403266132L42.8875,60.51223810538651L43.33424479166666,61.20786370486022L43.78098958333333,61.605764383077634L44.227734375000004,57.20569632723929L44.674479166666664,60.996484120935214L45.12122395833333,59.84793288409711L45.567968750000006,68.90285203009844L46.014713541666666,67.11562882885337L46.46145833333333,69.48302082493902L46.908203125,71.21169140338898L47.35494791666667,73.29269975200296L47.801692708333334,71.03595111295581L48.2484375,77.89128131009639L48.69518229166667,83.0110751722008L49.14192708333333,80.16608037762344L49.588671875,81.03879798911512L50.03541666666667,81.68439340554178L50.48216145833333,84.82487124167383L50.92890625,74.87261501848698L51.37565104166667,87.98278134092689L51.82239583333333,90.4144790187478L52.269140625,81.11381029486657L52.715885416666666,86.21809232756496L53.16263020833333,87.00451405495406L53.609375,87.87184126451612L54.05611979166667,90.4397331342101L54.502864583333334,91.70381535552441L54.949609374999994,96.60108617283403L55.39635416666667,90.76999827995895L55.843098958333336,88.1618185132742L56.289843749999996,89.03032435812055L56.73658854166667,89.25905378311872L57.18333333333334,91.97659936510026L57.630078125,87.89102911725641L58.07682291666667,95.04848557300865L58.52356770833333,97.54045849442481L58.9703125,95.70478761345147L59.41705729166667,97.21870754621922L59.86380208333333,105.09110932946204L60.310546875,101.87050077840685L60.75729166666667,96.50946582444011L61.204036458333334,100.7485224097967L61.65078125,107.87493048012256L62.09752604166666,106.99918797947466L62.544270833333336,104.54722272008657L62.991015624999996,102.49385872632264L63.43776041666666,108.47042977586388L63.88450520833334,107.84840706512331L64.33125,109.85310908183455L64.77799479166667,106.08792157620191L65.22473958333333,103.88859637789427L65.671484375,106.09975738227367L66.11822916666667,110.42275258116423L66.56497395833333,109.05240361355244L67.01171875,105.78906747289001L67.45846354166666,109.5218301448971L67.90520833333333,106.82203827202319L68.351953125,106.52934933789074L68.79869791666667,112.64198270402848L69.24544270833334,108.74747500531375L69.6921875,109.45421109683811L70.13893229166666,110.28205814547836L70.58567708333332,109.44064442776143L71.032421875,108.841155904904L71.47916666666667,108.81684140078723L71.92591145833333,112.7929469268769L72.37265625,112.00384648293256L72.81940104166667,115.49659615159034L73.26614583333333,108.89313949048518L73.712890625,118.11745242923497L74.15963541666667,114.08280252255499L74.60638020833333,117.86036157757043L75.05312500000001,114.62090310417115L75.49986979166667,116.4391334798187L75.94661458333333,113.10781563408672L76.39335937499999,110.28054982200264L76.84010416666668,119.54730187319218L77.28684895833334,114.00986725240945L77.73359375,113.05560126677155L78.18033854166667,117.35826294645666L78.62708333333333,120.52340970151126L79.07382812499999,116.76384337954222L79.52057291666667,118.8855764620006L79.96731770833334,118.32537028715014L80.4140625,117.79716035127639L80.86080729166667,119.84122713804244L81.30755208333333,117.48392360061406L81.754296875,118.03310170546173L82.20104166666665,119.89987866729497L82.64778645833334,119.32729270085692L83.09453125,120.85929603092372L83.54127604166666,120.70637840554117L83.98802083333334,119.2693664856255L84.434765625,117.81520253755151L84.88151041666666,120.68518769703805L85.32825520833335,122.09720100983976L85.775,117.05503223240375L86.22174479166667,121.30149855986237L86.66848958333333,123.33907873146235L87.115234375,123.33301246874034L87.56197916666666,126.44667841270565L88.00872395833333,124.2151921313256L88.45546875000001,123.71967077963053L88.90221354166667,121.71509239599108L89.34895833333333,130.00669271461666L89.795703125,124.39628161266445L90.24244791666666,123.52992698326706L90.68919270833332,124.29389694482087L91.13593750000001,127.980734051764L91.58268229166667,124.38312705382704L92.02942708333333,124.92794503234326L92.47617187499999,126.94122718423604L92.92291666666667,126.08869473226368L93.36966145833333,130.0189323887229L93.81640625,130.98233897946776L94.26315104166667,132.28978344015778L94.70989583333333,134.991866645962L95.156640625,127.18282269090413L95.60338541666667,126.55814599022268L96.05013020833333,128.17231585979462L96.496875,126.00597596503793L96.94361979166668,131.19776548594237L97.39036458333334,126.6276607453823L97.837109375,125.77282047607004L98.28385416666666,128.4469296388328L98.73059895833333,127.2171514738351L99.17734375,131.87379936464131L99.62408854166667,134.58172629363835L100.07083333333334,132.07745600268245L100.517578125,134.87197553515435L100.96432291666666,135.72942034117878L101.41106770833333,132.92058409899474L101.8578125,130.9807399917394L102.30455729166667,130.58340802565218L102.75130208333334,129.94729114472867L103.198046875,129.14939626827837L103.64479166666666,131.09379831478L104.09153645833332,128.76425452306867L104.53828125,135.39594897776843L104.98502604166667,133.0601575948298L105.43177083333333,132.6891347464174L105.878515625,129.58411487527192L106.32526041666667,129.11057548373938L106.77200520833333,131.16406311057509L107.21875,130.4687095038593L107.66549479166667,131.58712724000216L108.11223958333333,134.3422984868288L108.55898437500001,134.40297759845853L109.00572916666667,132.66583403348923L109.45247395833333,127.0321469452232L109.89921874999999,132.2183894623071L110.34596354166668,134.00144210793079L110.79270833333334,135.13315452039242L111.239453125,130.91995373144746L111.68619791666667,132.45220432765782L112.13294270833333,135.75795485414565L112.57968749999999,129.4824307948351L113.02643229166667,136.9042889378965L113.47317708333334,138.20232904292644L113.919921875,136.65962733104826L114.36666666666667,137.50360437445343L114.81341145833333,135.844605153054L115.26015625,135.40118277780712L115.70690104166665,136.78139766454697L116.15364583333334,135.4722388252616L116.600390625,139.7423355538398L117.04713541666666,132.8900632146746L117.49388020833334,135.44695174098015L117.940625,135.64703126214445L118.38736979166666,133.8903454296291L118.83411458333335,136.96650934182108L119.280859375,137.0333783492446L119.72760416666667,138.7475096784532L120.17434895833333,138.94566876590252L120.62109375,138.56339530795813L121.06783854166666,138.53611361011863L121.51458333333333,136.10150643400848L121.96132812500001,136.40613008067012L122.40807291666667,132.6218701131642L122.85481770833333,139.34908347912133L123.3015625,140.89864270538092L123.74830729166666,139.23054408989847L124.19505208333332,141.0226301919669L124.64179687500001,136.5766365710646L125.08854166666667,139.0926684882492L125.53528645833333,138.76216431856156L125.98203124999999,140.15467657484115L126.42877604166667,139.72449118047953L126.87552083333333,138.05985429100693L127.322265625,140.29029381237925L127.76901041666667,143.16506769284607L128.21575520833332,138.92368680574L128.6625,138.12559411637486L129.10924479166667,139.9918600615114L129.55598958333334,144.21782390456647L130.002734375,137.48496874943376L130.44947916666666,140.24827505238355L130.89622395833334,139.85198160409928L131.34296875,141.08143832311035L131.78971354166666,141.41332718320191L132.23645833333333,142.22943733222783L132.683203125,142.68848692774773L133.12994791666665,142.60027885213495L133.57669270833333,140.44184323176742L134.0234375,139.90155846588314L134.47018229166667,139.0402892768383L134.91692708333332,138.1482354529202L135.363671875,142.25855704173446L135.81041666666667,139.12109585255385L136.25716145833331,144.14809073098004L136.70390625,139.11249099075795L137.1506510416667,141.66772283390165L137.59739583333334,140.79350514113904L138.044140625,140.28163125514985L138.49088541666669,142.42192578278483L138.93763020833333,144.62092953510583L139.384375,142.76541966721416L139.83111979166665,142.1237145714462L140.27786458333333,141.53059727288783L140.724609375,141.48998792991043L141.17135416666665,142.80191615000368L141.61809895833332,146.648173981905L142.06484375,144.3661877118051L142.51158854166667,144.01359031219036L142.95833333333334,143.30726220980287L143.40507812500002,146.60448205433786L143.85182291666666,142.59148441962898L144.29856770833334,142.7222469985485L144.7453125,145.44807187523693L145.19205729166666,145.55559143666179L145.63880208333333,148.86619662176818L146.085546875,144.83502904661L146.53229166666665,146.8966146396473L146.97903645833333,142.24747127629817L147.42578125,141.6825505603105L147.87252604166665,142.3749781843275L148.31927083333335,145.6424848806113L148.76601562500002,147.8349690489471L149.21276041666667,143.99914172720165L149.65950520833334,143.5260556569323L150.10625000000002,144.1624651361257L150.55299479166666,146.60083075761796L150.99973958333334,142.85819392427803L151.44648437499998,144.5140734711662L151.89322916666666,147.70932900030166L152.33997395833333,145.7427883917466L152.78671874999998,145.83928812537343L153.23346354166665,150.06858181916178L153.68020833333335,146.05431900601835L154.126953125,145.21502765603364L154.57369791666667,149.24696999844164L155.02044270833335,148.14423717800528L155.4671875,145.70292908940465L155.91393229166667,146.35266209263355L156.36067708333334,147.0297592157498L156.807421875,146.02545480486006L157.25416666666666,144.27055340968073L157.70091145833334,149.6578892391175L158.14765624999998,144.58465147074313L158.59440104166666,149.738275462389L159.04114583333333,148.21421349663288L159.487890625,147.6904131403193L159.93463541666668,149.22722991798074L160.38138020833335,148.55414262749255L160.828125,149.46188960932196L161.27486979166667,150.79872165117413L161.72161458333335,150.3416543059051L162.168359375,148.7251148024574L162.61510416666667,145.83313944060356L163.06184895833331,146.76783018987626L163.50859375,150.080726707913L163.95533854166666,149.92881051041186L164.4020833333333,146.98855643402786L164.848828125,150.05604542568327L165.29557291666669,147.77087766453624L165.74231770833333,148.37516315057874L166.1890625,144.88313879594207L166.63580729166668,147.04429846499116L167.08255208333333,149.15583181902767L167.529296875,152.34865589775146L167.97604166666667,150.6745981682092L168.42278645833332,147.0674549393356L168.86953125,144.5817460935563L169.31627604166667,151.82566327750683L169.76302083333331,145.1217959566042L170.209765625,149.7304494889453L170.6565104166667,149.84562193751336L171.10325520833334,150.48651105500758L171.55,149.04801141712815L171.99674479166669,150.36898133587093L172.44348958333333,149.22036828249693L172.890234375,150.14177259765566L173.33697916666665,148.5156432889402L173.78372395833333,146.43691390994937L174.23046875,151.69728269577027L174.67721354166665,151.75513473115862L175.12395833333332,150.7165097795427L175.570703125,153.1419722294435L176.01744791666667,152.8404229251668L176.46419270833334,150.7728699758649L176.91093750000002,152.8282697942108L177.35768229166666,151.85832713507116L177.80442708333334,150.3661336541176L178.251171875,152.2669591639191L178.69791666666666,149.5750921709463L179.14466145833333,151.8061622209847L179.59140625,148.1614922337234L180.03815104166665,155.15114976335317L180.48489583333333,155.51007717624307L180.931640625,149.44484885092825L181.37838541666665,151.9025259582326L181.82513020833335,150.086908361502L182.27187500000002,148.83290635664017L182.71861979166667,148.42959467098117L183.16536458333334,150.4624232115224L183.61210937500002,150.3513306543231L184.05885416666666,151.7073835177347L184.50559895833334,152.11385608892888L184.95234374999998,152.67450734283776L185.39908854166666,151.04716230891646L185.84583333333333,152.6457461692393L186.29257812499998,151.29060406945646L186.73932291666665,151.70031582713128L187.18606770833335,150.36288622543216L187.6328125,151.15213915016503L188.07955729166667,154.73074374496937L188.52630208333335,153.53595373928547L188.973046875,153.90421544909478L189.41979166666667,154.2307922082022L189.86653645833334,153.380633511208L190.31328125,152.77687552627177L190.76002604166666,150.4719264736399L191.20677083333334,152.877661206387L191.65351562499998,152.29096046425403L192.10026041666666,152.2351236479357L192.54700520833333,150.95967130512L192.99375,151.37081720642746L193.44049479166668,149.37611298412085L193.88723958333335,154.075768699497L194.333984375,154.94035949707032L194.78072916666667,152.08220602255315L195.22747395833335,152.68324820101262L195.67421875,149.1827591020614L196.12096354166667,153.74307210333646L196.56770833333331,156.32013754695654L197.014453125,153.0001156428829L197.46119791666666,153.89314204696566L197.9079427083333,153.92740077115596L198.3546875,155.63743984568865L198.80143229166669,151.0905039427802L199.24817708333333,155.55802620258183L199.694921875,155.10887549500913L200.14166666666668,156.09024597108365L200.58841145833333,153.62630066704006L201.03515625,155.90359300151468L201.48190104166667,154.6869034577161L201.92864583333332,150.84150281511248L202.375390625,156.11031986083836L202.82213541666667,156.45762576498092L203.26888020833331,155.40304802600295L203.715625,155.0222622860223L204.1623697916667,151.51668362561614L204.60911458333334,151.8619619473815L205.055859375,158.51291431356222L205.50260416666669,153.83083922099323L205.94934895833333,160.8927685232833L206.39609375,155.17985324151815L206.84283854166665,153.20084629822523L207.28958333333333,150.26171316169203L207.736328125,153.1152551226318L208.18307291666665,151.67911275532097L208.62981770833332,154.20283877067268L209.0765625,153.42567716035992L209.52330729166667,154.0614272631705L209.97005208333334,154.60712303649635L210.41679687500002,156.00375227406622L210.86354166666666,153.6104756338522L211.31028645833334,155.4204514414072L211.75703125,152.2165622027591L212.20377604166666,156.3518865197897L212.65052083333333,159.3396156957373L213.097265625,156.0682227998972L213.54401041666665,155.9947682708502L213.99075520833333,155.10204270724208L214.4375,154.51561395786703L214.88424479166665,154.4427940785885L215.33098958333335,155.90485405884684L215.77773437500002,155.07059869598598L216.22447916666667,156.79380469266326L216.67122395833334,157.74452653024346L217.11796875000002,157.78531308062375L217.56471354166666,154.9549399573356L218.01145833333334,158.5678280029446L218.45820312499998,156.62404412180186L218.90494791666666,158.33797763809562L219.35169270833333,157.64801855441183L219.79843749999998,154.53326051831246L220.24518229166665,153.2061583992094L220.69192708333335,153.96994703225792L221.138671875,155.10183665212244L221.58541666666667,158.46593374628574L222.03216145833335,158.2690233528614L222.47890625,155.7244321960956L222.92565104166667,157.00118680726737L223.37239583333334,154.03341613020748L223.819140625,158.70193279590458L224.26588541666666,158.4814332123846L224.71263020833334,157.61279137115926L225.15937499999998,155.62921824641526L225.60611979166666,159.8531174171716L226.05286458333333,160.0861533941701L226.499609375,158.82986005637795L226.94635416666668,159.51508811451495L227.39309895833335,159.35437336340547L227.83984375,156.37620102390648L228.28658854166667,157.70848748981953L228.73333333333335,155.80048714075238L229.180078125,160.0072919787839L229.62682291666667,159.23125130832196L230.07356770833331,158.66920300070197L230.5203125,157.85342666096986L230.96705729166666,156.76283460818232L231.4138020833333,154.4567357679829L231.860546875,158.14527076911182L232.30729166666669,159.21359238456935L232.75403645833333,156.3227997791022L233.20078125,155.47246387470514L233.64752604166668,159.58355610966683L234.09427083333333,159.70854502413422L234.541015625,159.9118472473696L234.98776041666667,157.43118263091893L235.43450520833332,158.3005786338821L235.88125,157.11143453847617L236.32799479166667,160.98562108129263L236.77473958333331,162.10982896629721L237.221484375,155.50102311428637L237.6682291666667,156.50733862314374L238.11497395833334,157.60841476041824L238.56171875,161.15615229830146L239.00846354166669,154.275110543333L239.45520833333333,161.62892104368657L239.901953125,158.97727601006628L240.34869791666665,157.5139961834997L240.79544270833333,157.96568549014629L241.2421875,157.28373370841146L241.68893229166665,159.58591338023544L242.13567708333332,160.63909818660468L242.582421875,158.2253190619871L243.02916666666667,159.90562026165426L243.47591145833334,158.57421571165324L243.92265625000002,154.24443717822433L244.36940104166666,157.3388864217326L244.81614583333334,158.89042377714068L245.262890625,157.6681789873168" style="fill: none;" fill="none"></path></g></g></g></g></g></g><g transform="translate(61, 177)" clip-path="url(#clip_1)"><clipPath id="clip_1"><rect width="268" height="23"></rect></clipPath><g><g><line x1="0" y1="0" x2="0" y2="5" style="visibility: inherit;" fill="rgb(0, 0, 0)" stroke="rgb(204, 204, 204)" stroke-width="1px"></line><line x1="22.337239583333332" y1="0" x2="22.337239583333332" y2="5" style="visibility: inherit;" fill="rgb(0, 0, 0)" stroke="rgb(204, 204, 204)" stroke-width="1px"></line><line x1="44.674479166666664" y1="0" x2="44.674479166666664" y2="5" style="visibility: inherit;" fill="rgb(0, 0, 0)" stroke="rgb(204, 204, 204)" stroke-width="1px"></line><line x1="67.01171875" y1="0" x2="67.01171875" y2="5" style="visibility: inherit;" fill="rgb(0, 0, 0)" stroke="rgb(204, 204, 204)" stroke-width="1px"></line><line x1="89.34895833333333" y1="0" x2="89.34895833333333" y2="5" style="visibility: inherit;" fill="rgb(0, 0, 0)" stroke="rgb(204, 204, 204)" stroke-width="1px"></line><line x1="111.68619791666667" y1="0" x2="111.68619791666667" y2="5" style="visibility: inherit;" fill="rgb(0, 0, 0)" stroke="rgb(204, 204, 204)" stroke-width="1px"></line><line x1="134.0234375" y1="0" x2="134.0234375" y2="5" style="visibility: inherit;" fill="rgb(0, 0, 0)" stroke="rgb(204, 204, 204)" stroke-width="1px"></line><line x1="156.36067708333334" y1="0" x2="156.36067708333334" y2="5" style="visibility: inherit;" fill="rgb(0, 0, 0)" stroke="rgb(204, 204, 204)" stroke-width="1px"></line><line x1="178.69791666666666" y1="0" x2="178.69791666666666" y2="5" style="visibility: inherit;" fill="rgb(0, 0, 0)" stroke="rgb(204, 204, 204)" stroke-width="1px"></line><line x1="201.03515625" y1="0" x2="201.03515625" y2="5" style="visibility: inherit;" fill="rgb(0, 0, 0)" stroke="rgb(204, 204, 204)" stroke-width="1px"></line><line x1="223.37239583333334" y1="0" x2="223.37239583333334" y2="5" style="visibility: inherit;" fill="rgb(0, 0, 0)" stroke="rgb(204, 204, 204)" stroke-width="1px"></line><line x1="245.70963541666666" y1="0" x2="245.70963541666666" y2="5" style="visibility: inherit;" fill="rgb(0, 0, 0)" stroke="rgb(204, 204, 204)" stroke-width="1px"></line><line x1="268.046875" y1="0" x2="268.046875" y2="5" style="visibility: inherit;" fill="rgb(0, 0, 0)" stroke="rgb(204, 204, 204)" stroke-width="1px"></line></g><g transform="translate(0, 8)"><text x="0" y="0" dx="0em" dy="0.95em" style="text-anchor: middle; visibility: hidden; font-family: Roboto, sans-serif; font-size: 12px; font-weight: 200;" fill="rgb(33, 33, 33)" stroke="none" stroke-width="1px">-50</text><text x="22.337239583333332" y="0" dx="0em" dy="0.95em" style="text-anchor: middle; visibility: inherit; font-family: Roboto, sans-serif; font-size: 12px; font-weight: 200;" fill="rgb(33, 33, 33)" stroke="none" stroke-width="1px">0</text><text x="44.674479166666664" y="0" dx="0em" dy="0.95em" style="text-anchor: middle; visibility: hidden; font-family: Roboto, sans-serif; font-size: 12px; font-weight: 200;" fill="rgb(33, 33, 33)" stroke="none" stroke-width="1px">50</text><text x="67.01171875" y="0" dx="0em" dy="0.95em" style="text-anchor: middle; visibility: inherit; font-family: Roboto, sans-serif; font-size: 12px; font-weight: 200;" fill="rgb(33, 33, 33)" stroke="none" stroke-width="1px">100</text><text x="89.34895833333333" y="0" dx="0em" dy="0.95em" style="text-anchor: middle; visibility: hidden; font-family: Roboto, sans-serif; font-size: 12px; font-weight: 200;" fill="rgb(33, 33, 33)" stroke="none" stroke-width="1px">150</text><text x="111.68619791666667" y="0" dx="0em" dy="0.95em" style="text-anchor: middle; visibility: inherit; font-family: Roboto, sans-serif; font-size: 12px; font-weight: 200;" fill="rgb(33, 33, 33)" stroke="none" stroke-width="1px">200</text><text x="134.0234375" y="0" dx="0em" dy="0.95em" style="text-anchor: middle; visibility: hidden; font-family: Roboto, sans-serif; font-size: 12px; font-weight: 200;" fill="rgb(33, 33, 33)" stroke="none" stroke-width="1px">250</text><text x="156.36067708333334" y="0" dx="0em" dy="0.95em" style="text-anchor: middle; visibility: inherit; font-family: Roboto, sans-serif; font-size: 12px; font-weight: 200;" fill="rgb(33, 33, 33)" stroke="none" stroke-width="1px">300</text><text x="178.69791666666666" y="0" dx="0em" dy="0.95em" style="text-anchor: middle; visibility: hidden; font-family: Roboto, sans-serif; font-size: 12px; font-weight: 200;" fill="rgb(33, 33, 33)" stroke="none" stroke-width="1px">350</text><text x="201.03515625" y="0" dx="0em" dy="0.95em" style="text-anchor: middle; visibility: inherit; font-family: Roboto, sans-serif; font-size: 12px; font-weight: 200;" fill="rgb(33, 33, 33)" stroke="none" stroke-width="1px">400</text><text x="223.37239583333334" y="0" dx="0em" dy="0.95em" style="text-anchor: middle; visibility: hidden; font-family: Roboto, sans-serif; font-size: 12px; font-weight: 200;" fill="rgb(33, 33, 33)" stroke="none" stroke-width="1px">450</text><text x="245.70963541666666" y="0" dx="0em" dy="0.95em" style="text-anchor: middle; visibility: inherit; font-family: Roboto, sans-serif; font-size: 12px; font-weight: 200;" fill="rgb(33, 33, 33)" stroke="none" stroke-width="1px">500</text><text x="268.046875" y="0" dx="0em" dy="0.95em" style="text-anchor: middle; visibility: hidden; font-family: Roboto, sans-serif; font-size: 12px; font-weight: 200;" fill="rgb(33, 33, 33)" stroke="none" stroke-width="1px">550</text></g><line x1="0" y1="0" x2="268.046875" y2="0" fill="rgb(0, 0, 0)" stroke="rgb(204, 204, 204)" stroke-width="1px"></line></g></g></g></g></svg>